<?xml version="1.0" encoding="UTF-8" standalone="no"?>
<!DOCTYPE svg PUBLIC "-//W3C//DTD SVG 1.1//EN"
 "http://www.w3.org/Graphics/SVG/1.1/DTD/svg11.dtd">
<!-- Generated by graphviz version 5.0.0 (20220707.1540)
 -->
<!-- Title: dependencies Pages: 1 -->
<svg width="3770pt" height="329pt"
 viewBox="0.00 0.00 3770.00 328.80" xmlns="http://www.w3.org/2000/svg" xmlns:xlink="http://www.w3.org/1999/xlink">
<g id="graph0" class="graph" transform="scale(1 1) rotate(0) translate(4 324.8)">
<title>dependencies</title>
<polygon fill="white" stroke="transparent" points="-4,4 -4,-324.8 3766,-324.8 3766,4 -4,4"/>
<text text-anchor="middle" x="1881" y="-8.2" font-family="sans-serif" font-size="14.00">dependencies</text>
<g id="clust1" class="cluster">
<title>cluster_AppModule</title>
<polygon fill="none" stroke="black" stroke-dasharray="1,5" points="1113,-100.8 1113,-312.8 1508,-312.8 1508,-100.8 1113,-100.8"/>
</g>
<g id="clust2" class="cluster">
<title>cluster_AppModule_declarations</title>
<polygon fill="none" stroke="black" points="1121,-108.8 1121,-160.8 1243,-160.8 1243,-108.8 1121,-108.8"/>
</g>
<g id="clust4" class="cluster">
<title>cluster_AppModule_imports</title>
<polygon fill="none" stroke="black" points="1251,-108.8 1251,-160.8 1500,-160.8 1500,-108.8 1251,-108.8"/>
</g>
<g id="clust6" class="cluster">
<title>cluster_AppModule_bootstrap</title>
<polygon fill="none" stroke="black" points="1261,-252.8 1261,-304.8 1385,-304.8 1385,-252.8 1261,-252.8"/>
</g>
<g id="clust14" class="cluster">
<title>cluster_ChannelsModule</title>
<polygon fill="none" stroke="black" stroke-dasharray="1,5" points="8,-32.8 8,-160.8 1105,-160.8 1105,-32.8 8,-32.8"/>
</g>
<g id="clust15" class="cluster">
<title>cluster_ChannelsModule_declarations</title>
<polygon fill="none" stroke="black" points="16,-40.8 16,-92.8 800,-92.8 800,-40.8 16,-40.8"/>
</g>
<g id="clust20" class="cluster">
<title>cluster_ChannelsModule_imports</title>
<polygon fill="none" stroke="black" points="808,-40.8 808,-92.8 1097,-92.8 1097,-40.8 808,-40.8"/>
</g>
<g id="clust30" class="cluster">
<title>cluster_CoreModule</title>
<polygon fill="none" stroke="black" stroke-dasharray="1,5" points="1516,-176.8 1516,-244.8 2826,-244.8 2826,-176.8 1516,-176.8"/>
</g>
<g id="clust31" class="cluster">
<title>cluster_CoreModule_declarations</title>
<polygon fill="none" stroke="black" points="1524,-184.8 1524,-236.8 1920,-236.8 1920,-184.8 1524,-184.8"/>
</g>
<g id="clust35" class="cluster">
<title>cluster_CoreModule_imports</title>
<polygon fill="none" stroke="black" points="2688,-184.8 2688,-236.8 2818,-236.8 2818,-184.8 2688,-184.8"/>
</g>
<g id="clust36" class="cluster">
<title>cluster_CoreModule_exports</title>
<polygon fill="none" stroke="black" points="1928,-184.8 1928,-236.8 2680,-236.8 2680,-184.8 1928,-184.8"/>
</g>
<g id="clust45" class="cluster">
<title>cluster_MessagesModule</title>
<polygon fill="none" stroke="black" stroke-dasharray="1,5" points="2624,-100.8 2624,-168.8 3384,-168.8 3384,-100.8 2624,-100.8"/>
</g>
<g id="clust46" class="cluster">
<title>cluster_MessagesModule_declarations</title>
<polygon fill="none" stroke="black" points="3014,-108.8 3014,-160.8 3376,-160.8 3376,-108.8 3014,-108.8"/>
</g>
<g id="clust49" class="cluster">
<title>cluster_MessagesModule_imports</title>
<polygon fill="none" stroke="black" points="2830,-108.8 2830,-160.8 3006,-160.8 3006,-108.8 2830,-108.8"/>
</g>
<g id="clust50" class="cluster">
<title>cluster_MessagesModule_exports</title>
<polygon fill="none" stroke="black" points="2632,-108.8 2632,-160.8 2822,-160.8 2822,-108.8 2632,-108.8"/>
</g>
<g id="clust59" class="cluster">
<title>cluster_PageNotFoundModule</title>
<polygon fill="none" stroke="black" stroke-dasharray="1,5" points="2206,-32.8 2206,-160.8 2616,-160.8 2616,-32.8 2206,-32.8"/>
</g>
<g id="clust60" class="cluster">
<title>cluster_PageNotFoundModule_declarations</title>
<polygon fill="none" stroke="black" points="2426,-40.8 2426,-92.8 2608,-92.8 2608,-40.8 2426,-40.8"/>
</g>
<g id="clust62" class="cluster">
<title>cluster_PageNotFoundModule_imports</title>
<polygon fill="none" stroke="black" points="2214,-40.8 2214,-92.8 2418,-92.8 2418,-40.8 2214,-40.8"/>
</g>
<g id="clust72" class="cluster">
<title>cluster_SharedModule</title>
<polygon fill="none" stroke="black" stroke-dasharray="1,5" points="1582,-100.8 1582,-168.8 2198,-168.8 2198,-100.8 1582,-100.8"/>
</g>
<g id="clust73" class="cluster">
<title>cluster_SharedModule_declarations</title>
<polygon fill="none" stroke="black" points="1898,-108.8 1898,-160.8 2190,-160.8 2190,-108.8 1898,-108.8"/>
</g>
<g id="clust77" class="cluster">
<title>cluster_SharedModule_exports</title>
<polygon fill="none" stroke="black" points="1590,-108.8 1590,-160.8 1890,-160.8 1890,-108.8 1590,-108.8"/>
</g>
<g id="clust80" class="cluster">
<title>cluster_TemplatesModule</title>
<polygon fill="none" stroke="black" stroke-dasharray="1,5" points="3392,-32.8 3392,-244.8 3616,-244.8 3616,-32.8 3392,-32.8"/>
</g>
<g id="clust81" class="cluster">
<title>cluster_TemplatesModule_declarations</title>
<polygon fill="none" stroke="black" points="3401,-40.8 3401,-92.8 3607,-92.8 3607,-40.8 3401,-40.8"/>
</g>
<g id="clust84" class="cluster">
<title>cluster_TemplatesModule_exports</title>
<polygon fill="none" stroke="black" points="3400,-184.8 3400,-236.8 3608,-236.8 3608,-184.8 3400,-184.8"/>
</g>
<g id="clust87" class="cluster">
<title>cluster_UiModule</title>
<polygon fill="none" stroke="black" stroke-dasharray="1,5" points="3624,-32.8 3624,-244.8 3754,-244.8 3754,-32.8 3624,-32.8"/>
</g>
<g id="clust88" class="cluster">
<title>cluster_UiModule_declarations</title>
<polygon fill="none" stroke="black" points="3633,-40.8 3633,-92.8 3745,-92.8 3745,-40.8 3633,-40.8"/>
</g>
<g id="clust91" class="cluster">
<title>cluster_UiModule_exports</title>
<polygon fill="none" stroke="black" points="3632,-184.8 3632,-236.8 3746,-236.8 3746,-184.8 3632,-184.8"/>
</g>
<!-- AppComponent -->
<g id="node1" class="node">
<title>AppComponent</title>
<polygon fill="#ffffb3" stroke="black" points="1234.94,-152.8 1129.06,-152.8 1129.06,-116.8 1234.94,-116.8 1234.94,-152.8"/>
<text text-anchor="middle" x="1182" y="-130.6" font-family="Times,serif" font-size="14.00">AppComponent</text>
</g>
<!-- AppModule -->
<g id="node2" class="node">
<title>AppModule</title>
<polygon fill="#8dd3c7" stroke="black" points="1364.66,-228.8 1361.66,-232.8 1340.66,-232.8 1337.66,-228.8 1281.34,-228.8 1281.34,-192.8 1364.66,-192.8 1364.66,-228.8"/>
<text text-anchor="middle" x="1323" y="-206.6" font-family="Times,serif" font-size="14.00">AppModule</text>
</g>
<!-- AppComponent&#45;&gt;AppModule -->
<g id="edge1" class="edge">
<title>AppComponent&#45;&gt;AppModule</title>
<path fill="none" stroke="black" d="M1182,-152.81C1182,-175.29 1182,-210.8 1182,-210.8 1182,-210.8 1271.08,-210.8 1271.08,-210.8"/>
<polygon fill="black" stroke="black" points="1271.08,-214.3 1281.08,-210.8 1271.08,-207.3 1271.08,-214.3"/>
</g>
<!-- AppComponent  -->
<g id="node5" class="node">
<title>AppComponent </title>
<polygon fill="#80b1d3" stroke="black" points="1377.44,-296.8 1268.56,-296.8 1268.56,-260.8 1377.44,-260.8 1377.44,-296.8"/>
<text text-anchor="middle" x="1323" y="-274.6" font-family="Times,serif" font-size="14.00">AppComponent </text>
</g>
<!-- AppModule&#45;&gt;AppComponent  -->
<g id="edge4" class="edge">
<title>AppModule&#45;&gt;AppComponent </title>
<path fill="none" stroke="black" stroke-dasharray="1,5" d="M1323,-229.02C1323,-229.02 1323,-250.53 1323,-250.53"/>
<polygon fill="black" stroke="black" points="1319.5,-250.53 1323,-260.53 1326.5,-250.53 1319.5,-250.53"/>
</g>
<!-- AppRoutingModule -->
<g id="node3" class="node">
<title>AppRoutingModule</title>
<polygon fill="#8dd3c7" stroke="black" points="1387.28,-152.8 1384.28,-156.8 1363.28,-156.8 1360.28,-152.8 1258.72,-152.8 1258.72,-116.8 1387.28,-116.8 1387.28,-152.8"/>
<text text-anchor="middle" x="1323" y="-130.6" font-family="Times,serif" font-size="14.00">AppRoutingModule</text>
</g>
<!-- AppRoutingModule&#45;&gt;AppModule -->
<g id="edge2" class="edge">
<title>AppRoutingModule&#45;&gt;AppModule</title>
<path fill="none" stroke="black" d="M1323,-152.81C1323,-152.81 1323,-182.65 1323,-182.65"/>
<polygon fill="black" stroke="black" points="1319.5,-182.65 1323,-192.65 1326.5,-182.65 1319.5,-182.65"/>
</g>
<!-- CoreModule -->
<g id="node4" class="node">
<title>CoreModule</title>
<polygon fill="#8dd3c7" stroke="black" points="1492.27,-152.8 1489.27,-156.8 1468.27,-156.8 1465.27,-152.8 1405.73,-152.8 1405.73,-116.8 1492.27,-116.8 1492.27,-152.8"/>
<text text-anchor="middle" x="1449" y="-130.6" font-family="Times,serif" font-size="14.00">CoreModule</text>
</g>
<!-- CoreModule&#45;&gt;AppModule -->
<g id="edge3" class="edge">
<title>CoreModule&#45;&gt;AppModule</title>
<path fill="none" stroke="black" d="M1484.5,-152.81C1484.5,-175.29 1484.5,-210.8 1484.5,-210.8 1484.5,-210.8 1375.01,-210.8 1375.01,-210.8"/>
<polygon fill="black" stroke="black" points="1375.01,-207.3 1365.01,-210.8 1375.01,-214.3 1375.01,-207.3"/>
</g>
<!-- FooterComponent  -->
<g id="node17" class="node">
<title>FooterComponent </title>
<polygon fill="#fb8072" stroke="black" points="2437.88,-228.8 2316.12,-228.8 2316.12,-192.8 2437.88,-192.8 2437.88,-228.8"/>
<text text-anchor="middle" x="2377" y="-206.6" font-family="Times,serif" font-size="14.00">FooterComponent </text>
</g>
<!-- CoreModule&#45;&gt;FooterComponent  -->
<g id="edge16" class="edge">
<title>CoreModule&#45;&gt;FooterComponent </title>
<path fill="none" stroke="black" stroke-dasharray="5,2" d="M1437.17,-152.91C1437.17,-162.7 1437.17,-172.8 1437.17,-172.8 1437.17,-172.8 2352.04,-172.8 2352.04,-172.8 2352.04,-172.8 2352.04,-182.69 2352.04,-182.69"/>
<polygon fill="black" stroke="black" points="2348.54,-182.69 2352.04,-192.69 2355.54,-182.69 2348.54,-182.69"/>
</g>
<!-- HeaderComponent  -->
<g id="node18" class="node">
<title>HeaderComponent </title>
<polygon fill="#fb8072" stroke="black" points="2298.75,-228.8 2173.25,-228.8 2173.25,-192.8 2298.75,-192.8 2298.75,-228.8"/>
<text text-anchor="middle" x="2236" y="-206.6" font-family="Times,serif" font-size="14.00">HeaderComponent </text>
</g>
<!-- CoreModule&#45;&gt;HeaderComponent  -->
<g id="edge17" class="edge">
<title>CoreModule&#45;&gt;HeaderComponent </title>
<path fill="none" stroke="black" stroke-dasharray="5,2" d="M1429.28,-152.86C1429.28,-164.24 1429.28,-176.8 1429.28,-176.8 1429.28,-176.8 2177.77,-176.8 2177.77,-176.8 2177.77,-176.8 2177.77,-182.61 2177.77,-182.61"/>
<polygon fill="black" stroke="black" points="2174.27,-182.61 2177.77,-192.61 2181.27,-182.61 2174.27,-182.61"/>
</g>
<!-- IconsModule  -->
<g id="node19" class="node">
<title>IconsModule </title>
<polygon fill="#fb8072" stroke="black" points="2155.88,-228.8 2062.12,-228.8 2062.12,-192.8 2155.88,-192.8 2155.88,-228.8"/>
<text text-anchor="middle" x="2109" y="-206.6" font-family="Times,serif" font-size="14.00">IconsModule </text>
</g>
<!-- CoreModule&#45;&gt;IconsModule  -->
<g id="edge18" class="edge">
<title>CoreModule&#45;&gt;IconsModule </title>
<path fill="none" stroke="black" stroke-dasharray="5,2" d="M1421.39,-152.84C1421.39,-165.36 1421.39,-179.8 1421.39,-179.8 1421.39,-179.8 2109,-179.8 2109,-179.8 2109,-179.8 2109,-182.77 2109,-182.77"/>
<polygon fill="black" stroke="black" points="2105.5,-182.77 2109,-192.77 2112.5,-182.77 2105.5,-182.77"/>
</g>
<!-- NavComponent  -->
<g id="node20" class="node">
<title>NavComponent </title>
<polygon fill="#fb8072" stroke="black" points="2044.16,-228.8 1935.84,-228.8 1935.84,-192.8 2044.16,-192.8 2044.16,-228.8"/>
<text text-anchor="middle" x="1990" y="-206.6" font-family="Times,serif" font-size="14.00">NavComponent </text>
</g>
<!-- CoreModule&#45;&gt;NavComponent  -->
<g id="edge19" class="edge">
<title>CoreModule&#45;&gt;NavComponent </title>
<path fill="none" stroke="black" stroke-dasharray="5,2" d="M1413.5,-152.95C1413.5,-166.54 1413.5,-182.8 1413.5,-182.8 1413.5,-182.8 1984.96,-182.8 1984.96,-182.8 1984.96,-182.8 1984.96,-183.78 1984.96,-183.78"/>
<polygon fill="black" stroke="black" points="1981.46,-182.59 1984.96,-192.59 1988.46,-182.59 1981.46,-182.59"/>
</g>
<!-- TemplatesModule  -->
<g id="node21" class="node">
<title>TemplatesModule </title>
<polygon fill="#fb8072" stroke="black" points="2671.86,-228.8 2550.14,-228.8 2550.14,-192.8 2671.86,-192.8 2671.86,-228.8"/>
<text text-anchor="middle" x="2611" y="-206.6" font-family="Times,serif" font-size="14.00">TemplatesModule </text>
</g>
<!-- CoreModule&#45;&gt;TemplatesModule  -->
<g id="edge20" class="edge">
<title>CoreModule&#45;&gt;TemplatesModule </title>
<path fill="none" stroke="black" stroke-dasharray="5,2" d="M1452.94,-153.01C1452.94,-158.35 1452.94,-162.8 1452.94,-162.8 1452.94,-162.8 2583.22,-162.8 2583.22,-162.8 2583.22,-162.8 2583.22,-182.65 2583.22,-182.65"/>
<polygon fill="black" stroke="black" points="2579.72,-182.65 2583.22,-192.65 2586.72,-182.65 2579.72,-182.65"/>
</g>
<!-- UiModule  -->
<g id="node22" class="node">
<title>UiModule </title>
<polygon fill="#fb8072" stroke="black" points="2532.55,-228.8 2455.45,-228.8 2455.45,-192.8 2532.55,-192.8 2532.55,-228.8"/>
<text text-anchor="middle" x="2494" y="-206.6" font-family="Times,serif" font-size="14.00">UiModule </text>
</g>
<!-- CoreModule&#45;&gt;UiModule  -->
<g id="edge21" class="edge">
<title>CoreModule&#45;&gt;UiModule </title>
<path fill="none" stroke="black" stroke-dasharray="5,2" d="M1445.06,-153.12C1445.06,-161.59 1445.06,-169.8 1445.06,-169.8 1445.06,-169.8 2494,-169.8 2494,-169.8 2494,-169.8 2494,-182.7 2494,-182.7"/>
<polygon fill="black" stroke="black" points="2490.5,-182.7 2494,-192.7 2497.5,-182.7 2490.5,-182.7"/>
</g>
<!-- FormChannelComponent -->
<g id="node6" class="node">
<title>FormChannelComponent</title>
<polygon fill="#ffffb3" stroke="black" points="792.32,-84.8 633.68,-84.8 633.68,-48.8 792.32,-48.8 792.32,-84.8"/>
<text text-anchor="middle" x="713" y="-62.6" font-family="Times,serif" font-size="14.00">FormChannelComponent</text>
</g>
<!-- ChannelsModule -->
<g id="node10" class="node">
<title>ChannelsModule</title>
<polygon fill="#8dd3c7" stroke="black" points="670.66,-152.8 667.66,-156.8 646.66,-156.8 643.66,-152.8 559.34,-152.8 559.34,-116.8 670.66,-116.8 670.66,-152.8"/>
<text text-anchor="middle" x="615" y="-130.6" font-family="Times,serif" font-size="14.00">ChannelsModule</text>
</g>
<!-- FormChannelComponent&#45;&gt;ChannelsModule -->
<g id="edge5" class="edge">
<title>FormChannelComponent&#45;&gt;ChannelsModule</title>
<path fill="none" stroke="black" d="M652.33,-85.02C652.33,-85.02 652.33,-106.53 652.33,-106.53"/>
<polygon fill="black" stroke="black" points="648.83,-106.53 652.33,-116.53 655.83,-106.53 648.83,-106.53"/>
</g>
<!-- FormDeleteChannelComponent -->
<g id="node7" class="node">
<title>FormDeleteChannelComponent</title>
<polygon fill="#ffffb3" stroke="black" points="615.36,-84.8 420.64,-84.8 420.64,-48.8 615.36,-48.8 615.36,-84.8"/>
<text text-anchor="middle" x="518" y="-62.6" font-family="Times,serif" font-size="14.00">FormDeleteChannelComponent</text>
</g>
<!-- FormDeleteChannelComponent&#45;&gt;ChannelsModule -->
<g id="edge6" class="edge">
<title>FormDeleteChannelComponent&#45;&gt;ChannelsModule</title>
<path fill="none" stroke="black" d="M587.3,-85.02C587.3,-85.02 587.3,-106.53 587.3,-106.53"/>
<polygon fill="black" stroke="black" points="583.8,-106.53 587.3,-116.53 590.8,-106.53 583.8,-106.53"/>
</g>
<!-- FormEditChannelComponent -->
<g id="node8" class="node">
<title>FormEditChannelComponent</title>
<polygon fill="#ffffb3" stroke="black" points="402.66,-84.8 221.34,-84.8 221.34,-48.8 402.66,-48.8 402.66,-84.8"/>
<text text-anchor="middle" x="312" y="-62.6" font-family="Times,serif" font-size="14.00">FormEditChannelComponent</text>
</g>
<!-- FormEditChannelComponent&#45;&gt;ChannelsModule -->
<g id="edge7" class="edge">
<title>FormEditChannelComponent&#45;&gt;ChannelsModule</title>
<path fill="none" stroke="black" d="M312,-85.07C312,-103.36 312,-128.8 312,-128.8 312,-128.8 549.07,-128.8 549.07,-128.8"/>
<polygon fill="black" stroke="black" points="549.07,-132.3 559.07,-128.8 549.07,-125.3 549.07,-132.3"/>
</g>
<!-- PageAddChannelComponent -->
<g id="node9" class="node">
<title>PageAddChannelComponent</title>
<polygon fill="#ffffb3" stroke="black" points="203.81,-84.8 24.19,-84.8 24.19,-48.8 203.81,-48.8 203.81,-84.8"/>
<text text-anchor="middle" x="114" y="-62.6" font-family="Times,serif" font-size="14.00">PageAddChannelComponent</text>
</g>
<!-- PageAddChannelComponent&#45;&gt;ChannelsModule -->
<g id="edge8" class="edge">
<title>PageAddChannelComponent&#45;&gt;ChannelsModule</title>
<path fill="none" stroke="black" d="M114,-85.09C114,-107.01 114,-140.8 114,-140.8 114,-140.8 548.99,-140.8 548.99,-140.8"/>
<polygon fill="black" stroke="black" points="548.99,-144.3 558.99,-140.8 548.99,-137.3 548.99,-144.3"/>
</g>
<!-- ChannelsRoutingModule -->
<g id="node11" class="node">
<title>ChannelsRoutingModule</title>
<polygon fill="#8dd3c7" stroke="black" points="972.27,-84.8 969.27,-88.8 948.27,-88.8 945.27,-84.8 815.73,-84.8 815.73,-48.8 972.27,-48.8 972.27,-84.8"/>
<text text-anchor="middle" x="894" y="-62.6" font-family="Times,serif" font-size="14.00">ChannelsRoutingModule</text>
</g>
<!-- ChannelsRoutingModule&#45;&gt;ChannelsModule -->
<g id="edge9" class="edge">
<title>ChannelsRoutingModule&#45;&gt;ChannelsModule</title>
<path fill="none" stroke="black" d="M894,-85.07C894,-103.36 894,-128.8 894,-128.8 894,-128.8 680.79,-128.8 680.79,-128.8"/>
<polygon fill="black" stroke="black" points="680.79,-125.3 670.79,-128.8 680.79,-132.3 680.79,-125.3"/>
</g>
<!-- SharedModule -->
<g id="node12" class="node">
<title>SharedModule</title>
<polygon fill="#8dd3c7" stroke="black" points="1089.43,-84.8 1086.43,-88.8 1065.43,-88.8 1062.43,-84.8 990.57,-84.8 990.57,-48.8 1089.43,-48.8 1089.43,-84.8"/>
<text text-anchor="middle" x="1040" y="-62.6" font-family="Times,serif" font-size="14.00">SharedModule</text>
</g>
<!-- SharedModule&#45;&gt;CoreModule -->
<g id="edge15" class="edge">
<title>SharedModule&#45;&gt;CoreModule</title>
<path fill="none" stroke="black" d="M1089.33,-79.8C1198.12,-79.8 1449,-79.8 1449,-79.8 1449,-79.8 1449,-106.79 1449,-106.79"/>
<polygon fill="black" stroke="black" points="1445.5,-106.79 1449,-116.79 1452.5,-106.79 1445.5,-106.79"/>
</g>
<!-- SharedModule&#45;&gt;ChannelsModule -->
<g id="edge10" class="edge">
<title>SharedModule&#45;&gt;ChannelsModule</title>
<path fill="none" stroke="black" d="M1015.39,-85.09C1015.39,-107.01 1015.39,-140.8 1015.39,-140.8 1015.39,-140.8 680.67,-140.8 680.67,-140.8"/>
<polygon fill="black" stroke="black" points="680.67,-137.3 670.67,-140.8 680.67,-144.3 680.67,-137.3"/>
</g>
<!-- MessagesModule -->
<g id="node16" class="node">
<title>MessagesModule</title>
<polygon fill="#8dd3c7" stroke="black" points="2809.99,-228.8 2806.99,-232.8 2785.99,-232.8 2782.99,-228.8 2696.01,-228.8 2696.01,-192.8 2809.99,-192.8 2809.99,-228.8"/>
<text text-anchor="middle" x="2753" y="-206.6" font-family="Times,serif" font-size="14.00">MessagesModule</text>
</g>
<!-- SharedModule&#45;&gt;MessagesModule -->
<g id="edge25" class="edge">
<title>SharedModule&#45;&gt;MessagesModule</title>
<path fill="none" stroke="black" d="M1064.61,-85.17C1064.61,-112.28 1064.61,-159.8 1064.61,-159.8 1064.61,-159.8 2724.5,-159.8 2724.5,-159.8 2724.5,-159.8 2724.5,-182.68 2724.5,-182.68"/>
<polygon fill="black" stroke="black" points="2721,-182.68 2724.5,-192.68 2728,-182.68 2721,-182.68"/>
</g>
<!-- SharedModule&#45;&gt;TemplatesModule  -->
<g id="edge34" class="edge">
<title>SharedModule&#45;&gt;TemplatesModule </title>
<path fill="none" stroke="black" stroke-dasharray="5,2" d="M1040,-85.14C1040,-114.01 1040,-166.8 1040,-166.8 1040,-166.8 2566.77,-166.8 2566.77,-166.8 2566.77,-166.8 2566.77,-182.65 2566.77,-182.65"/>
<polygon fill="black" stroke="black" points="2563.27,-182.65 2566.77,-192.65 2570.27,-182.65 2563.27,-182.65"/>
</g>
<!-- PageNotFoundModule -->
<g id="node28" class="node">
<title>PageNotFoundModule</title>
<polygon fill="#8dd3c7" stroke="black" points="2387.55,-152.8 2384.55,-156.8 2363.55,-156.8 2360.55,-152.8 2244.45,-152.8 2244.45,-116.8 2387.55,-116.8 2387.55,-152.8"/>
<text text-anchor="middle" x="2316" y="-130.6" font-family="Times,serif" font-size="14.00">PageNotFoundModule</text>
</g>
<!-- SharedModule&#45;&gt;PageNotFoundModule -->
<g id="edge29" class="edge">
<title>SharedModule&#45;&gt;PageNotFoundModule</title>
<path fill="none" stroke="black" d="M1089.55,-54.8C1311.33,-54.8 2201.91,-54.8 2201.91,-54.8 2201.91,-54.8 2201.91,-134.8 2201.91,-134.8 2201.91,-134.8 2234.39,-134.8 2234.39,-134.8"/>
<polygon fill="black" stroke="black" points="2234.39,-138.3 2244.39,-134.8 2234.39,-131.3 2234.39,-138.3"/>
</g>
<!-- BtnLinkComponent  -->
<g id="node32" class="node">
<title>BtnLinkComponent </title>
<polygon fill="#fb8072" stroke="black" points="1729.5,-152.8 1598.5,-152.8 1598.5,-116.8 1729.5,-116.8 1729.5,-152.8"/>
<text text-anchor="middle" x="1664" y="-130.6" font-family="Times,serif" font-size="14.00">BtnLinkComponent </text>
</g>
<!-- SharedModule&#45;&gt;BtnLinkComponent  -->
<g id="edge32" class="edge">
<title>SharedModule&#45;&gt;BtnLinkComponent </title>
<path fill="none" stroke="black" stroke-dasharray="5,2" d="M1089.22,-74.8C1236.57,-74.8 1664,-74.8 1664,-74.8 1664,-74.8 1664,-106.8 1664,-106.8"/>
<polygon fill="black" stroke="black" points="1660.5,-106.8 1664,-116.8 1667.5,-106.8 1660.5,-106.8"/>
</g>
<!-- MessageComponent  -->
<g id="node33" class="node">
<title>MessageComponent </title>
<polygon fill="#fb8072" stroke="black" points="1881.82,-152.8 1748.18,-152.8 1748.18,-116.8 1881.82,-116.8 1881.82,-152.8"/>
<text text-anchor="middle" x="1815" y="-130.6" font-family="Times,serif" font-size="14.00">MessageComponent </text>
</g>
<!-- SharedModule&#45;&gt;MessageComponent  -->
<g id="edge33" class="edge">
<title>SharedModule&#45;&gt;MessageComponent </title>
<path fill="none" stroke="black" stroke-dasharray="5,2" d="M1089.36,-69.8C1260.07,-69.8 1815,-69.8 1815,-69.8 1815,-69.8 1815,-106.69 1815,-106.69"/>
<polygon fill="black" stroke="black" points="1811.5,-106.69 1815,-116.69 1818.5,-106.69 1811.5,-106.69"/>
</g>
<!-- FooterComponent -->
<g id="node13" class="node">
<title>FooterComponent</title>
<polygon fill="#ffffb3" stroke="black" points="1911.88,-228.8 1794.12,-228.8 1794.12,-192.8 1911.88,-192.8 1911.88,-228.8"/>
<text text-anchor="middle" x="1853" y="-206.6" font-family="Times,serif" font-size="14.00">FooterComponent</text>
</g>
<!-- FooterComponent&#45;&gt;CoreModule -->
<g id="edge11" class="edge">
<title>FooterComponent&#45;&gt;CoreModule</title>
<path fill="none" stroke="black" d="M1837.98,-192.61C1837.98,-189.26 1837.98,-186.8 1837.98,-186.8 1837.98,-186.8 1468.72,-186.8 1468.72,-186.8 1468.72,-186.8 1468.72,-162.99 1468.72,-162.99"/>
<polygon fill="black" stroke="black" points="1472.22,-162.99 1468.72,-152.99 1465.22,-162.99 1472.22,-162.99"/>
</g>
<!-- HeaderComponent -->
<g id="node14" class="node">
<title>HeaderComponent</title>
<polygon fill="#ffffb3" stroke="black" points="1775.75,-228.8 1654.25,-228.8 1654.25,-192.8 1775.75,-192.8 1775.75,-228.8"/>
<text text-anchor="middle" x="1715" y="-206.6" font-family="Times,serif" font-size="14.00">HeaderComponent</text>
</g>
<!-- HeaderComponent&#45;&gt;CoreModule -->
<g id="edge12" class="edge">
<title>HeaderComponent&#45;&gt;CoreModule</title>
<path fill="none" stroke="black" d="M1691.94,-192.72C1691.94,-190.95 1691.94,-189.8 1691.94,-189.8 1691.94,-189.8 1460.83,-189.8 1460.83,-189.8 1460.83,-189.8 1460.83,-162.81 1460.83,-162.81"/>
<polygon fill="black" stroke="black" points="1464.33,-162.81 1460.83,-152.81 1457.33,-162.81 1464.33,-162.81"/>
</g>
<!-- NavComponent -->
<g id="node15" class="node">
<title>NavComponent</title>
<polygon fill="#ffffb3" stroke="black" points="1636.16,-228.8 1531.84,-228.8 1531.84,-192.8 1636.16,-192.8 1636.16,-228.8"/>
<text text-anchor="middle" x="1584" y="-206.6" font-family="Times,serif" font-size="14.00">NavComponent</text>
</g>
<!-- NavComponent&#45;&gt;CoreModule -->
<g id="edge13" class="edge">
<title>NavComponent&#45;&gt;CoreModule</title>
<path fill="none" stroke="black" d="M1564.96,-192.79C1564.96,-170.31 1564.96,-134.8 1564.96,-134.8 1564.96,-134.8 1502.51,-134.8 1502.51,-134.8"/>
<polygon fill="black" stroke="black" points="1502.51,-131.3 1492.51,-134.8 1502.51,-138.3 1502.51,-131.3"/>
</g>
<!-- MessagesModule&#45;&gt;CoreModule -->
<g id="edge14" class="edge">
<title>MessagesModule&#45;&gt;CoreModule</title>
<path fill="none" stroke="black" d="M2753,-192.52C2753,-176.85 2753,-156.8 2753,-156.8 2753,-156.8 1476.61,-156.8 1476.61,-156.8 1476.61,-156.8 1476.61,-156.42 1476.61,-156.42"/>
<polygon fill="black" stroke="black" points="1480.11,-162.97 1476.61,-152.97 1473.11,-162.97 1480.11,-162.97"/>
</g>
<!-- SubmitMessageComponent  -->
<g id="node26" class="node">
<title>SubmitMessageComponent </title>
<polygon fill="#fb8072" stroke="black" points="2814.27,-152.8 2639.73,-152.8 2639.73,-116.8 2814.27,-116.8 2814.27,-152.8"/>
<text text-anchor="middle" x="2727" y="-130.6" font-family="Times,serif" font-size="14.00">SubmitMessageComponent </text>
</g>
<!-- MessagesModule&#45;&gt;SubmitMessageComponent  -->
<g id="edge26" class="edge">
<title>MessagesModule&#45;&gt;SubmitMessageComponent </title>
<path fill="none" stroke="black" stroke-dasharray="5,2" d="M2781.5,-192.79C2781.5,-192.79 2781.5,-162.95 2781.5,-162.95"/>
<polygon fill="black" stroke="black" points="2785,-162.95 2781.5,-152.95 2778,-162.95 2785,-162.95"/>
</g>
<!-- ListMessagesComponent -->
<g id="node23" class="node">
<title>ListMessagesComponent</title>
<polygon fill="#ffffb3" stroke="black" points="3367.55,-152.8 3210.45,-152.8 3210.45,-116.8 3367.55,-116.8 3367.55,-152.8"/>
<text text-anchor="middle" x="3289" y="-130.6" font-family="Times,serif" font-size="14.00">ListMessagesComponent</text>
</g>
<!-- ListMessagesComponent&#45;&gt;MessagesModule -->
<g id="edge22" class="edge">
<title>ListMessagesComponent&#45;&gt;MessagesModule</title>
<path fill="none" stroke="black" d="M3289,-152.83C3289,-177.78 3289,-219.8 3289,-219.8 3289,-219.8 2820.11,-219.8 2820.11,-219.8"/>
<polygon fill="black" stroke="black" points="2820.11,-216.3 2810.11,-219.8 2820.11,-223.3 2820.11,-216.3"/>
</g>
<!-- SubmitMessageComponent -->
<g id="node24" class="node">
<title>SubmitMessageComponent</title>
<polygon fill="#ffffb3" stroke="black" points="3192.27,-152.8 3021.73,-152.8 3021.73,-116.8 3192.27,-116.8 3192.27,-152.8"/>
<text text-anchor="middle" x="3107" y="-130.6" font-family="Times,serif" font-size="14.00">SubmitMessageComponent</text>
</g>
<!-- SubmitMessageComponent&#45;&gt;MessagesModule -->
<g id="edge23" class="edge">
<title>SubmitMessageComponent&#45;&gt;MessagesModule</title>
<path fill="none" stroke="black" d="M3107,-152.81C3107,-175.29 3107,-210.8 3107,-210.8 3107,-210.8 2820.27,-210.8 2820.27,-210.8"/>
<polygon fill="black" stroke="black" points="2820.27,-207.3 2810.27,-210.8 2820.27,-214.3 2820.27,-207.3"/>
</g>
<!-- MessagesRoutingModule -->
<g id="node25" class="node">
<title>MessagesRoutingModule</title>
<polygon fill="#8dd3c7" stroke="black" points="2997.6,-152.8 2994.6,-156.8 2973.6,-156.8 2970.6,-152.8 2838.4,-152.8 2838.4,-116.8 2997.6,-116.8 2997.6,-152.8"/>
<text text-anchor="middle" x="2918" y="-130.6" font-family="Times,serif" font-size="14.00">MessagesRoutingModule</text>
</g>
<!-- MessagesRoutingModule&#45;&gt;MessagesModule -->
<g id="edge24" class="edge">
<title>MessagesRoutingModule&#45;&gt;MessagesModule</title>
<path fill="none" stroke="black" d="M2918,-153.11C2918,-172.95 2918,-201.8 2918,-201.8 2918,-201.8 2820.25,-201.8 2820.25,-201.8"/>
<polygon fill="black" stroke="black" points="2820.25,-198.3 2810.25,-201.8 2820.25,-205.3 2820.25,-198.3"/>
</g>
<!-- PageNotFoundComponent -->
<g id="node27" class="node">
<title>PageNotFoundComponent</title>
<polygon fill="#ffffb3" stroke="black" points="2599.83,-84.8 2434.17,-84.8 2434.17,-48.8 2599.83,-48.8 2599.83,-84.8"/>
<text text-anchor="middle" x="2517" y="-62.6" font-family="Times,serif" font-size="14.00">PageNotFoundComponent</text>
</g>
<!-- PageNotFoundComponent&#45;&gt;PageNotFoundModule -->
<g id="edge27" class="edge">
<title>PageNotFoundComponent&#45;&gt;PageNotFoundModule</title>
<path fill="none" stroke="black" d="M2446.58,-85.02C2446.58,-105.17 2446.58,-134.8 2446.58,-134.8 2446.58,-134.8 2397.79,-134.8 2397.79,-134.8"/>
<polygon fill="black" stroke="black" points="2397.79,-131.3 2387.79,-134.8 2397.79,-138.3 2397.79,-131.3"/>
</g>
<!-- PageNotFoundRoutingModule -->
<g id="node29" class="node">
<title>PageNotFoundRoutingModule</title>
<polygon fill="#8dd3c7" stroke="black" points="2410.17,-84.8 2407.17,-88.8 2386.17,-88.8 2383.17,-84.8 2221.83,-84.8 2221.83,-48.8 2410.17,-48.8 2410.17,-84.8"/>
<text text-anchor="middle" x="2316" y="-62.6" font-family="Times,serif" font-size="14.00">PageNotFoundRoutingModule</text>
</g>
<!-- PageNotFoundRoutingModule&#45;&gt;PageNotFoundModule -->
<g id="edge28" class="edge">
<title>PageNotFoundRoutingModule&#45;&gt;PageNotFoundModule</title>
<path fill="none" stroke="black" d="M2316,-85.02C2316,-85.02 2316,-106.53 2316,-106.53"/>
<polygon fill="black" stroke="black" points="2312.5,-106.53 2316,-116.53 2319.5,-106.53 2312.5,-106.53"/>
</g>
<!-- BtnLinkComponent -->
<g id="node30" class="node">
<title>BtnLinkComponent</title>
<polygon fill="#ffffb3" stroke="black" points="2034,-152.8 1906,-152.8 1906,-116.8 2034,-116.8 2034,-152.8"/>
<text text-anchor="middle" x="1970" y="-130.6" font-family="Times,serif" font-size="14.00">BtnLinkComponent</text>
</g>
<!-- BtnLinkComponent&#45;&gt;SharedModule -->
<g id="edge30" class="edge">
<title>BtnLinkComponent&#45;&gt;SharedModule</title>
<path fill="none" stroke="black" d="M1970,-116.77C1970,-96.03 1970,-64.8 1970,-64.8 1970,-64.8 1099.34,-64.8 1099.34,-64.8"/>
<polygon fill="black" stroke="black" points="1099.34,-61.3 1089.34,-64.8 1099.34,-68.3 1099.34,-61.3"/>
</g>
<!-- MessageComponent -->
<g id="node31" class="node">
<title>MessageComponent</title>
<polygon fill="#ffffb3" stroke="black" points="2182.32,-152.8 2051.68,-152.8 2051.68,-116.8 2182.32,-116.8 2182.32,-152.8"/>
<text text-anchor="middle" x="2117" y="-130.6" font-family="Times,serif" font-size="14.00">MessageComponent</text>
</g>
<!-- MessageComponent&#45;&gt;SharedModule -->
<g id="edge31" class="edge">
<title>MessageComponent&#45;&gt;SharedModule</title>
<path fill="none" stroke="black" d="M2117,-116.64C2117,-94.45 2117,-59.8 2117,-59.8 2117,-59.8 1099.43,-59.8 1099.43,-59.8"/>
<polygon fill="black" stroke="black" points="1099.43,-56.3 1089.43,-59.8 1099.43,-63.3 1099.43,-56.3"/>
</g>
<!-- TemplateContainerComponent -->
<g id="node34" class="node">
<title>TemplateContainerComponent</title>
<polygon fill="#ffffb3" stroke="black" points="3598.9,-84.8 3409.1,-84.8 3409.1,-48.8 3598.9,-48.8 3598.9,-84.8"/>
<text text-anchor="middle" x="3504" y="-62.6" font-family="Times,serif" font-size="14.00">TemplateContainerComponent</text>
</g>
<!-- TemplatesModule -->
<g id="node35" class="node">
<title>TemplatesModule</title>
<polygon fill="#8dd3c7" stroke="black" points="3562.86,-152.8 3559.86,-156.8 3538.86,-156.8 3535.86,-152.8 3445.14,-152.8 3445.14,-116.8 3562.86,-116.8 3562.86,-152.8"/>
<text text-anchor="middle" x="3504" y="-130.6" font-family="Times,serif" font-size="14.00">TemplatesModule</text>
</g>
<!-- TemplateContainerComponent&#45;&gt;TemplatesModule -->
<g id="edge35" class="edge">
<title>TemplateContainerComponent&#45;&gt;TemplatesModule</title>
<path fill="none" stroke="black" d="M3504,-85.02C3504,-85.02 3504,-106.53 3504,-106.53"/>
<polygon fill="black" stroke="black" points="3500.5,-106.53 3504,-116.53 3507.5,-106.53 3500.5,-106.53"/>
</g>
<!-- TemplateContainerComponent  -->
<g id="node36" class="node">
<title>TemplateContainerComponent </title>
<polygon fill="#fb8072" stroke="black" points="3600.4,-228.8 3407.6,-228.8 3407.6,-192.8 3600.4,-192.8 3600.4,-228.8"/>
<text text-anchor="middle" x="3504" y="-206.6" font-family="Times,serif" font-size="14.00">TemplateContainerComponent </text>
</g>
<!-- TemplatesModule&#45;&gt;TemplateContainerComponent  -->
<g id="edge36" class="edge">
<title>TemplatesModule&#45;&gt;TemplateContainerComponent </title>
<path fill="none" stroke="black" stroke-dasharray="5,2" d="M3504,-152.81C3504,-152.81 3504,-182.65 3504,-182.65"/>
<polygon fill="black" stroke="black" points="3500.5,-182.65 3504,-192.65 3507.5,-182.65 3500.5,-182.65"/>
</g>
<!-- UiComponent -->
<g id="node37" class="node">
<title>UiComponent</title>
<polygon fill="#ffffb3" stroke="black" points="3736.83,-84.8 3641.17,-84.8 3641.17,-48.8 3736.83,-48.8 3736.83,-84.8"/>
<text text-anchor="middle" x="3689" y="-62.6" font-family="Times,serif" font-size="14.00">UiComponent</text>
</g>
<!-- UiModule -->
<g id="node38" class="node">
<title>UiModule</title>
<polygon fill="#8dd3c7" stroke="black" points="3725.55,-152.8 3722.55,-156.8 3701.55,-156.8 3698.55,-152.8 3652.45,-152.8 3652.45,-116.8 3725.55,-116.8 3725.55,-152.8"/>
<text text-anchor="middle" x="3689" y="-130.6" font-family="Times,serif" font-size="14.00">UiModule</text>
</g>
<!-- UiComponent&#45;&gt;UiModule -->
<g id="edge37" class="edge">
<title>UiComponent&#45;&gt;UiModule</title>
<path fill="none" stroke="black" d="M3689,-85.02C3689,-85.02 3689,-106.53 3689,-106.53"/>
<polygon fill="black" stroke="black" points="3685.5,-106.53 3689,-116.53 3692.5,-106.53 3685.5,-106.53"/>
</g>
<!-- UiComponent  -->
<g id="node39" class="node">
<title>UiComponent </title>
<polygon fill="#fb8072" stroke="black" points="3738.33,-228.8 3639.67,-228.8 3639.67,-192.8 3738.33,-192.8 3738.33,-228.8"/>
<text text-anchor="middle" x="3689" y="-206.6" font-family="Times,serif" font-size="14.00">UiComponent </text>
</g>
<!-- UiModule&#45;&gt;UiComponent  -->
<g id="edge38" class="edge">
<title>UiModule&#45;&gt;UiComponent </title>
<path fill="none" stroke="black" stroke-dasharray="5,2" d="M3689,-152.81C3689,-152.81 3689,-182.65 3689,-182.65"/>
<polygon fill="black" stroke="black" points="3685.5,-182.65 3689,-192.65 3692.5,-182.65 3685.5,-182.65"/>
</g>
</g>
</svg>
