<?xml version="1.0" encoding="UTF-8" standalone="no"?>
<!DOCTYPE svg PUBLIC "-//W3C//DTD SVG 1.1//EN"
 "http://www.w3.org/Graphics/SVG/1.1/DTD/svg11.dtd">
<!-- Generated by graphviz version 5.0.0 (20220707.1540)
 -->
<!-- Title: dependencies Pages: 1 -->
<svg width="702pt" height="247pt"
 viewBox="0.00 0.00 702.00 246.80" xmlns="http://www.w3.org/2000/svg" xmlns:xlink="http://www.w3.org/1999/xlink">
<g id="graph0" class="graph" transform="scale(1 1) rotate(0) translate(4 242.8)">
<title>dependencies</title>
<polygon fill="white" stroke="transparent" points="-4,4 -4,-242.8 698,-242.8 698,4 -4,4"/>
<text text-anchor="middle" x="347" y="-8.2" font-family="sans-serif" font-size="14.00">dependencies</text>
<g id="clust1" class="cluster">
<title>cluster_MessagesModule</title>
<polygon fill="none" stroke="black" stroke-dasharray="1,5" points="8,-32.8 8,-230.8 686,-230.8 686,-32.8 8,-32.8"/>
</g>
<g id="clust2" class="cluster">
<title>cluster_MessagesModule_declarations</title>
<polygon fill="none" stroke="black" points="316,-40.8 316,-92.8 678,-92.8 678,-40.8 316,-40.8"/>
</g>
<g id="clust5" class="cluster">
<title>cluster_MessagesModule_imports</title>
<polygon fill="none" stroke="black" points="16,-40.8 16,-92.8 308,-92.8 308,-40.8 16,-40.8"/>
</g>
<g id="clust6" class="cluster">
<title>cluster_MessagesModule_exports</title>
<polygon fill="none" stroke="black" points="219,-170.8 219,-222.8 409,-222.8 409,-170.8 219,-170.8"/>
</g>
<!-- ListMessagesComponent -->
<g id="node1" class="node">
<title>ListMessagesComponent</title>
<polygon fill="#ffffb3" stroke="black" points="669.55,-84.8 512.45,-84.8 512.45,-48.8 669.55,-48.8 669.55,-84.8"/>
<text text-anchor="middle" x="591" y="-62.6" font-family="Times,serif" font-size="14.00">ListMessagesComponent</text>
</g>
<!-- MessagesModule -->
<g id="node3" class="node">
<title>MessagesModule</title>
<polygon fill="#8dd3c7" stroke="black" points="370.99,-149.8 367.99,-153.8 346.99,-153.8 343.99,-149.8 257.01,-149.8 257.01,-113.8 370.99,-113.8 370.99,-149.8"/>
<text text-anchor="middle" x="314" y="-127.6" font-family="Times,serif" font-size="14.00">MessagesModule</text>
</g>
<!-- ListMessagesComponent&#45;&gt;MessagesModule -->
<g id="edge1" class="edge">
<title>ListMessagesComponent&#45;&gt;MessagesModule</title>
<path fill="none" stroke="black" d="M591,-84.91C591,-104.14 591,-131.8 591,-131.8 591,-131.8 381.06,-131.8 381.06,-131.8"/>
<polygon fill="black" stroke="black" points="381.06,-128.3 371.06,-131.8 381.06,-135.3 381.06,-128.3"/>
</g>
<!-- SubmitMessageComponent -->
<g id="node2" class="node">
<title>SubmitMessageComponent</title>
<polygon fill="#ffffb3" stroke="black" points="494.27,-84.8 323.73,-84.8 323.73,-48.8 494.27,-48.8 494.27,-84.8"/>
<text text-anchor="middle" x="409" y="-62.6" font-family="Times,serif" font-size="14.00">SubmitMessageComponent</text>
</g>
<!-- SubmitMessageComponent&#45;&gt;MessagesModule -->
<g id="edge2" class="edge">
<title>SubmitMessageComponent&#45;&gt;MessagesModule</title>
<path fill="none" stroke="black" d="M347.3,-84.91C347.3,-84.91 347.3,-103.79 347.3,-103.79"/>
<polygon fill="black" stroke="black" points="343.8,-103.79 347.3,-113.79 350.8,-103.79 343.8,-103.79"/>
</g>
<!-- SubmitMessageComponent  -->
<g id="node6" class="node">
<title>SubmitMessageComponent </title>
<polygon fill="#fb8072" stroke="black" points="401.27,-214.8 226.73,-214.8 226.73,-178.8 401.27,-178.8 401.27,-214.8"/>
<text text-anchor="middle" x="314" y="-192.6" font-family="Times,serif" font-size="14.00">SubmitMessageComponent </text>
</g>
<!-- MessagesModule&#45;&gt;SubmitMessageComponent  -->
<g id="edge5" class="edge">
<title>MessagesModule&#45;&gt;SubmitMessageComponent </title>
<path fill="none" stroke="black" stroke-dasharray="5,2" d="M314,-149.91C314,-149.91 314,-168.79 314,-168.79"/>
<polygon fill="black" stroke="black" points="310.5,-168.79 314,-178.79 317.5,-168.79 310.5,-168.79"/>
</g>
<!-- MessagesRoutingModule -->
<g id="node4" class="node">
<title>MessagesRoutingModule</title>
<polygon fill="#8dd3c7" stroke="black" points="299.6,-84.8 296.6,-88.8 275.6,-88.8 272.6,-84.8 140.4,-84.8 140.4,-48.8 299.6,-48.8 299.6,-84.8"/>
<text text-anchor="middle" x="220" y="-62.6" font-family="Times,serif" font-size="14.00">MessagesRoutingModule</text>
</g>
<!-- MessagesRoutingModule&#45;&gt;MessagesModule -->
<g id="edge3" class="edge">
<title>MessagesRoutingModule&#45;&gt;MessagesModule</title>
<path fill="none" stroke="black" d="M278.28,-84.91C278.28,-84.91 278.28,-103.79 278.28,-103.79"/>
<polygon fill="black" stroke="black" points="274.78,-103.79 278.28,-113.79 281.78,-103.79 274.78,-103.79"/>
</g>
<!-- SharedModule -->
<g id="node5" class="node">
<title>SharedModule</title>
<polygon fill="#8dd3c7" stroke="black" points="122.43,-84.8 119.43,-88.8 98.43,-88.8 95.43,-84.8 23.57,-84.8 23.57,-48.8 122.43,-48.8 122.43,-84.8"/>
<text text-anchor="middle" x="73" y="-62.6" font-family="Times,serif" font-size="14.00">SharedModule</text>
</g>
<!-- SharedModule&#45;&gt;MessagesModule -->
<g id="edge4" class="edge">
<title>SharedModule&#45;&gt;MessagesModule</title>
<path fill="none" stroke="black" d="M73,-84.91C73,-104.14 73,-131.8 73,-131.8 73,-131.8 246.89,-131.8 246.89,-131.8"/>
<polygon fill="black" stroke="black" points="246.89,-135.3 256.89,-131.8 246.89,-128.3 246.89,-135.3"/>
</g>
</g>
</svg>
