<?xml version="1.0" encoding="UTF-8" standalone="no"?>
<!DOCTYPE svg PUBLIC "-//W3C//DTD SVG 1.1//EN"
 "http://www.w3.org/Graphics/SVG/1.1/DTD/svg11.dtd">
<!-- Generated by graphviz version 5.0.0 (20220707.1540)
 -->
<!-- Title: dependencies Pages: 1 -->
<svg width="248pt" height="247pt"
 viewBox="0.00 0.00 248.00 246.80" xmlns="http://www.w3.org/2000/svg" xmlns:xlink="http://www.w3.org/1999/xlink">
<g id="graph0" class="graph" transform="scale(1 1) rotate(0) translate(4 242.8)">
<title>dependencies</title>
<polygon fill="white" stroke="transparent" points="-4,4 -4,-242.8 244,-242.8 244,4 -4,4"/>
<text text-anchor="middle" x="120" y="-8.2" font-family="sans-serif" font-size="14.00">dependencies</text>
<g id="clust1" class="cluster">
<title>cluster_TemplatesModule</title>
<polygon fill="none" stroke="black" stroke-dasharray="1,5" points="8,-32.8 8,-230.8 232,-230.8 232,-32.8 8,-32.8"/>
</g>
<g id="clust2" class="cluster">
<title>cluster_TemplatesModule_declarations</title>
<polygon fill="none" stroke="black" points="17,-40.8 17,-92.8 223,-92.8 223,-40.8 17,-40.8"/>
</g>
<g id="clust5" class="cluster">
<title>cluster_TemplatesModule_exports</title>
<polygon fill="none" stroke="black" points="16,-170.8 16,-222.8 224,-222.8 224,-170.8 16,-170.8"/>
</g>
<!-- TemplateContainerComponent -->
<g id="node1" class="node">
<title>TemplateContainerComponent</title>
<polygon fill="#ffffb3" stroke="black" points="214.9,-84.8 25.1,-84.8 25.1,-48.8 214.9,-48.8 214.9,-84.8"/>
<text text-anchor="middle" x="120" y="-62.6" font-family="Times,serif" font-size="14.00">TemplateContainerComponent</text>
</g>
<!-- TemplatesModule -->
<g id="node2" class="node">
<title>TemplatesModule</title>
<polygon fill="#8dd3c7" stroke="black" points="178.86,-149.8 175.86,-153.8 154.86,-153.8 151.86,-149.8 61.14,-149.8 61.14,-113.8 178.86,-113.8 178.86,-149.8"/>
<text text-anchor="middle" x="120" y="-127.6" font-family="Times,serif" font-size="14.00">TemplatesModule</text>
</g>
<!-- TemplateContainerComponent&#45;&gt;TemplatesModule -->
<g id="edge1" class="edge">
<title>TemplateContainerComponent&#45;&gt;TemplatesModule</title>
<path fill="none" stroke="black" d="M120,-84.91C120,-84.91 120,-103.79 120,-103.79"/>
<polygon fill="black" stroke="black" points="116.5,-103.79 120,-113.79 123.5,-103.79 116.5,-103.79"/>
</g>
<!-- TemplateContainerComponent  -->
<g id="node3" class="node">
<title>TemplateContainerComponent </title>
<polygon fill="#fb8072" stroke="black" points="216.4,-214.8 23.6,-214.8 23.6,-178.8 216.4,-178.8 216.4,-214.8"/>
<text text-anchor="middle" x="120" y="-192.6" font-family="Times,serif" font-size="14.00">TemplateContainerComponent </text>
</g>
<!-- TemplatesModule&#45;&gt;TemplateContainerComponent  -->
<g id="edge2" class="edge">
<title>TemplatesModule&#45;&gt;TemplateContainerComponent </title>
<path fill="none" stroke="black" stroke-dasharray="5,2" d="M120,-149.91C120,-149.91 120,-168.79 120,-168.79"/>
<polygon fill="black" stroke="black" points="116.5,-168.79 120,-178.79 123.5,-168.79 116.5,-168.79"/>
</g>
</g>
</svg>
