<?xml version="1.0" encoding="UTF-8" standalone="no"?>
<!DOCTYPE svg PUBLIC "-//W3C//DTD SVG 1.1//EN"
 "http://www.w3.org/Graphics/SVG/1.1/DTD/svg11.dtd">
<!-- Generated by graphviz version 5.0.0 (20220707.1540)
 -->
<!-- Title: dependencies Pages: 1 -->
<svg width="793pt" height="247pt"
 viewBox="0.00 0.00 793.00 246.80" xmlns="http://www.w3.org/2000/svg" xmlns:xlink="http://www.w3.org/1999/xlink">
<g id="graph0" class="graph" transform="scale(1 1) rotate(0) translate(4 242.8)">
<title>dependencies</title>
<polygon fill="white" stroke="transparent" points="-4,4 -4,-242.8 789,-242.8 789,4 -4,4"/>
<text text-anchor="middle" x="392.5" y="-8.2" font-family="sans-serif" font-size="14.00">dependencies</text>
<g id="clust1" class="cluster">
<title>cluster_CoreModule</title>
<polygon fill="none" stroke="black" stroke-dasharray="1,5" points="8,-32.8 8,-230.8 777,-230.8 777,-32.8 8,-32.8"/>
</g>
<g id="clust2" class="cluster">
<title>cluster_CoreModule_declarations</title>
<polygon fill="none" stroke="black" points="321,-40.8 321,-92.8 717,-92.8 717,-40.8 321,-40.8"/>
</g>
<g id="clust6" class="cluster">
<title>cluster_CoreModule_imports</title>
<polygon fill="none" stroke="black" points="67,-40.8 67,-92.8 313,-92.8 313,-40.8 67,-40.8"/>
</g>
<g id="clust7" class="cluster">
<title>cluster_CoreModule_exports</title>
<polygon fill="none" stroke="black" points="16,-170.8 16,-222.8 769,-222.8 769,-170.8 16,-170.8"/>
</g>
<!-- FooterComponent -->
<g id="node1" class="node">
<title>FooterComponent</title>
<polygon fill="#ffffb3" stroke="black" points="708.88,-84.8 591.12,-84.8 591.12,-48.8 708.88,-48.8 708.88,-84.8"/>
<text text-anchor="middle" x="650" y="-62.6" font-family="Times,serif" font-size="14.00">FooterComponent</text>
</g>
<!-- CoreModule -->
<g id="node4" class="node">
<title>CoreModule</title>
<polygon fill="#8dd3c7" stroke="black" points="424.27,-149.8 421.27,-153.8 400.27,-153.8 397.27,-149.8 337.73,-149.8 337.73,-113.8 424.27,-113.8 424.27,-149.8"/>
<text text-anchor="middle" x="381" y="-127.6" font-family="Times,serif" font-size="14.00">CoreModule</text>
</g>
<!-- FooterComponent&#45;&gt;CoreModule -->
<g id="edge1" class="edge">
<title>FooterComponent&#45;&gt;CoreModule</title>
<path fill="none" stroke="black" d="M606.34,-85.07C606.34,-103.36 606.34,-128.8 606.34,-128.8 606.34,-128.8 434.45,-128.8 434.45,-128.8"/>
<polygon fill="black" stroke="black" points="434.45,-125.3 424.45,-128.8 434.45,-132.3 434.45,-125.3"/>
</g>
<!-- HeaderComponent -->
<g id="node2" class="node">
<title>HeaderComponent</title>
<polygon fill="#ffffb3" stroke="black" points="572.75,-84.8 451.25,-84.8 451.25,-48.8 572.75,-48.8 572.75,-84.8"/>
<text text-anchor="middle" x="512" y="-62.6" font-family="Times,serif" font-size="14.00">HeaderComponent</text>
</g>
<!-- HeaderComponent&#45;&gt;CoreModule -->
<g id="edge2" class="edge">
<title>HeaderComponent&#45;&gt;CoreModule</title>
<path fill="none" stroke="black" d="M464.91,-84.81C464.91,-100.85 464.91,-121.8 464.91,-121.8 464.91,-121.8 434.43,-121.8 434.43,-121.8"/>
<polygon fill="black" stroke="black" points="434.43,-118.3 424.43,-121.8 434.43,-125.3 434.43,-118.3"/>
</g>
<!-- NavComponent -->
<g id="node3" class="node">
<title>NavComponent</title>
<polygon fill="#ffffb3" stroke="black" points="433.16,-84.8 328.84,-84.8 328.84,-48.8 433.16,-48.8 433.16,-84.8"/>
<text text-anchor="middle" x="381" y="-62.6" font-family="Times,serif" font-size="14.00">NavComponent</text>
</g>
<!-- NavComponent&#45;&gt;CoreModule -->
<g id="edge3" class="edge">
<title>NavComponent&#45;&gt;CoreModule</title>
<path fill="none" stroke="black" d="M381,-84.91C381,-84.91 381,-103.79 381,-103.79"/>
<polygon fill="black" stroke="black" points="377.5,-103.79 381,-113.79 384.5,-103.79 377.5,-103.79"/>
</g>
<!-- FooterComponent  -->
<g id="node7" class="node">
<title>FooterComponent </title>
<polygon fill="#fb8072" stroke="black" points="760.88,-214.8 639.12,-214.8 639.12,-178.8 760.88,-178.8 760.88,-214.8"/>
<text text-anchor="middle" x="700" y="-192.6" font-family="Times,serif" font-size="14.00">FooterComponent </text>
</g>
<!-- CoreModule&#45;&gt;FooterComponent  -->
<g id="edge6" class="edge">
<title>CoreModule&#45;&gt;FooterComponent </title>
<path fill="none" stroke="black" stroke-dasharray="5,2" d="M424.57,-135.8C506.22,-135.8 674.12,-135.8 674.12,-135.8 674.12,-135.8 674.12,-168.5 674.12,-168.5"/>
<polygon fill="black" stroke="black" points="670.63,-168.5 674.12,-178.5 677.63,-168.5 670.63,-168.5"/>
</g>
<!-- HeaderComponent  -->
<g id="node8" class="node">
<title>HeaderComponent </title>
<polygon fill="#fb8072" stroke="black" points="621.75,-214.8 496.25,-214.8 496.25,-178.8 621.75,-178.8 621.75,-214.8"/>
<text text-anchor="middle" x="559" y="-192.6" font-family="Times,serif" font-size="14.00">HeaderComponent </text>
</g>
<!-- CoreModule&#45;&gt;HeaderComponent  -->
<g id="edge7" class="edge">
<title>CoreModule&#45;&gt;HeaderComponent </title>
<path fill="none" stroke="black" stroke-dasharray="5,2" d="M424.61,-142.8C470.03,-142.8 534.62,-142.8 534.62,-142.8 534.62,-142.8 534.62,-168.52 534.62,-168.52"/>
<polygon fill="black" stroke="black" points="531.13,-168.52 534.62,-178.52 538.13,-168.52 531.13,-168.52"/>
</g>
<!-- IconsModule  -->
<g id="node9" class="node">
<title>IconsModule </title>
<polygon fill="#fb8072" stroke="black" points="478.88,-214.8 385.12,-214.8 385.12,-178.8 478.88,-178.8 478.88,-214.8"/>
<text text-anchor="middle" x="432" y="-192.6" font-family="Times,serif" font-size="14.00">IconsModule </text>
</g>
<!-- CoreModule&#45;&gt;IconsModule  -->
<g id="edge8" class="edge">
<title>CoreModule&#45;&gt;IconsModule </title>
<path fill="none" stroke="black" stroke-dasharray="5,2" d="M404.85,-149.91C404.85,-149.91 404.85,-168.79 404.85,-168.79"/>
<polygon fill="black" stroke="black" points="401.35,-168.79 404.85,-178.79 408.35,-168.79 401.35,-168.79"/>
</g>
<!-- NavComponent  -->
<g id="node10" class="node">
<title>NavComponent </title>
<polygon fill="#fb8072" stroke="black" points="367.16,-214.8 258.84,-214.8 258.84,-178.8 367.16,-178.8 367.16,-214.8"/>
<text text-anchor="middle" x="313" y="-192.6" font-family="Times,serif" font-size="14.00">NavComponent </text>
</g>
<!-- CoreModule&#45;&gt;NavComponent  -->
<g id="edge9" class="edge">
<title>CoreModule&#45;&gt;NavComponent </title>
<path fill="none" stroke="black" stroke-dasharray="5,2" d="M352.35,-149.91C352.35,-149.91 352.35,-168.79 352.35,-168.79"/>
<polygon fill="black" stroke="black" points="348.85,-168.79 352.35,-178.79 355.85,-168.79 348.85,-168.79"/>
</g>
<!-- TemplatesModule  -->
<g id="node11" class="node">
<title>TemplatesModule </title>
<polygon fill="#fb8072" stroke="black" points="240.86,-214.8 119.14,-214.8 119.14,-178.8 240.86,-178.8 240.86,-214.8"/>
<text text-anchor="middle" x="180" y="-192.6" font-family="Times,serif" font-size="14.00">TemplatesModule </text>
</g>
<!-- CoreModule&#45;&gt;TemplatesModule  -->
<g id="edge10" class="edge">
<title>CoreModule&#45;&gt;TemplatesModule </title>
<path fill="none" stroke="black" stroke-dasharray="5,2" d="M337.61,-142.8C288.67,-142.8 215.84,-142.8 215.84,-142.8 215.84,-142.8 215.84,-168.52 215.84,-168.52"/>
<polygon fill="black" stroke="black" points="212.34,-168.52 215.84,-178.52 219.34,-168.52 212.34,-168.52"/>
</g>
<!-- UiModule  -->
<g id="node12" class="node">
<title>UiModule </title>
<polygon fill="#fb8072" stroke="black" points="101.55,-214.8 24.45,-214.8 24.45,-178.8 101.55,-178.8 101.55,-214.8"/>
<text text-anchor="middle" x="63" y="-192.6" font-family="Times,serif" font-size="14.00">UiModule </text>
</g>
<!-- CoreModule&#45;&gt;UiModule  -->
<g id="edge11" class="edge">
<title>CoreModule&#45;&gt;UiModule </title>
<path fill="none" stroke="black" stroke-dasharray="5,2" d="M337.47,-135.8C255.9,-135.8 88.16,-135.8 88.16,-135.8 88.16,-135.8 88.16,-168.5 88.16,-168.5"/>
<polygon fill="black" stroke="black" points="84.66,-168.5 88.16,-178.5 91.66,-168.5 84.66,-168.5"/>
</g>
<!-- MessagesModule -->
<g id="node5" class="node">
<title>MessagesModule</title>
<polygon fill="#8dd3c7" stroke="black" points="304.99,-84.8 301.99,-88.8 280.99,-88.8 277.99,-84.8 191.01,-84.8 191.01,-48.8 304.99,-48.8 304.99,-84.8"/>
<text text-anchor="middle" x="248" y="-62.6" font-family="Times,serif" font-size="14.00">MessagesModule</text>
</g>
<!-- MessagesModule&#45;&gt;CoreModule -->
<g id="edge4" class="edge">
<title>MessagesModule&#45;&gt;CoreModule</title>
<path fill="none" stroke="black" d="M281.96,-84.81C281.96,-100.85 281.96,-121.8 281.96,-121.8 281.96,-121.8 327.56,-121.8 327.56,-121.8"/>
<polygon fill="black" stroke="black" points="327.56,-125.3 337.56,-121.8 327.56,-118.3 327.56,-125.3"/>
</g>
<!-- SharedModule -->
<g id="node6" class="node">
<title>SharedModule</title>
<polygon fill="#8dd3c7" stroke="black" points="173.43,-84.8 170.43,-88.8 149.43,-88.8 146.43,-84.8 74.57,-84.8 74.57,-48.8 173.43,-48.8 173.43,-84.8"/>
<text text-anchor="middle" x="124" y="-62.6" font-family="Times,serif" font-size="14.00">SharedModule</text>
</g>
<!-- SharedModule&#45;&gt;CoreModule -->
<g id="edge5" class="edge">
<title>SharedModule&#45;&gt;CoreModule</title>
<path fill="none" stroke="black" d="M146.27,-85.07C146.27,-103.36 146.27,-128.8 146.27,-128.8 146.27,-128.8 327.67,-128.8 327.67,-128.8"/>
<polygon fill="black" stroke="black" points="327.67,-132.3 337.67,-128.8 327.67,-125.3 327.67,-132.3"/>
</g>
</g>
</svg>
