<?xml version="1.0" encoding="UTF-8" standalone="no"?>
<!DOCTYPE svg PUBLIC "-//W3C//DTD SVG 1.1//EN"
 "http://www.w3.org/Graphics/SVG/1.1/DTD/svg11.dtd">
<!-- Generated by graphviz version 5.0.0 (20220707.1540)
 -->
<!-- Title: dependencies Pages: 1 -->
<svg width="793pt" height="247pt"
 viewBox="0.00 0.00 793.00 246.80" xmlns="http://www.w3.org/2000/svg" xmlns:xlink="http://www.w3.org/1999/xlink">
<g id="graph0" class="graph" transform="scale(1 1) rotate(0) translate(4 242.8)">
<title>dependencies</title>
<polygon fill="white" stroke="transparent" points="-4,4 -4,-242.8 789,-242.8 789,4 -4,4"/>
<text text-anchor="middle" x="392.5" y="-8.2" font-family="sans-serif" font-size="14.00">dependencies</text>
<g id="clust1" class="cluster">
<title>cluster_CoreModule</title>
<polygon fill="none" stroke="black" stroke-dasharray="1,5" points="8,-32.8 8,-230.8 777,-230.8 777,-32.8 8,-32.8"/>
</g>
<g id="clust6" class="cluster">
<title>cluster_CoreModule_imports</title>
<polygon fill="none" stroke="black" points="463,-40.8 463,-92.8 709,-92.8 709,-40.8 463,-40.8"/>
</g>
<g id="clust7" class="cluster">
<title>cluster_CoreModule_exports</title>
<polygon fill="none" stroke="black" points="16,-170.8 16,-222.8 769,-222.8 769,-170.8 16,-170.8"/>
</g>
<g id="clust2" class="cluster">
<title>cluster_CoreModule_declarations</title>
<polygon fill="none" stroke="black" points="59,-40.8 59,-92.8 455,-92.8 455,-40.8 59,-40.8"/>
</g>
<!-- FooterComponent -->
<g id="node1" class="node">
<title>FooterComponent</title>
<polygon fill="#ffffb3" stroke="black" points="446.88,-84.8 329.12,-84.8 329.12,-48.8 446.88,-48.8 446.88,-84.8"/>
<text text-anchor="middle" x="388" y="-62.6" font-family="Times,serif" font-size="14.00">FooterComponent</text>
</g>
<!-- CoreModule -->
<g id="node4" class="node">
<title>CoreModule</title>
<polygon fill="#8dd3c7" stroke="black" points="431.27,-149.8 428.27,-153.8 407.27,-153.8 404.27,-149.8 344.73,-149.8 344.73,-113.8 431.27,-113.8 431.27,-149.8"/>
<text text-anchor="middle" x="388" y="-127.6" font-family="Times,serif" font-size="14.00">CoreModule</text>
</g>
<!-- FooterComponent&#45;&gt;CoreModule -->
<g id="edge1" class="edge">
<title>FooterComponent&#45;&gt;CoreModule</title>
<path fill="none" stroke="black" d="M388,-84.91C388,-84.91 388,-103.79 388,-103.79"/>
<polygon fill="black" stroke="black" points="384.5,-103.79 388,-113.79 391.5,-103.79 384.5,-103.79"/>
</g>
<!-- HeaderComponent -->
<g id="node2" class="node">
<title>HeaderComponent</title>
<polygon fill="#ffffb3" stroke="black" points="310.75,-84.8 189.25,-84.8 189.25,-48.8 310.75,-48.8 310.75,-84.8"/>
<text text-anchor="middle" x="250" y="-62.6" font-family="Times,serif" font-size="14.00">HeaderComponent</text>
</g>
<!-- HeaderComponent&#45;&gt;CoreModule -->
<g id="edge2" class="edge">
<title>HeaderComponent&#45;&gt;CoreModule</title>
<path fill="none" stroke="black" d="M284.9,-84.81C284.9,-100.85 284.9,-121.8 284.9,-121.8 284.9,-121.8 334.57,-121.8 334.57,-121.8"/>
<polygon fill="black" stroke="black" points="334.57,-125.3 344.57,-121.8 334.57,-118.3 334.57,-125.3"/>
</g>
<!-- NavComponent -->
<g id="node3" class="node">
<title>NavComponent</title>
<polygon fill="#ffffb3" stroke="black" points="171.16,-84.8 66.84,-84.8 66.84,-48.8 171.16,-48.8 171.16,-84.8"/>
<text text-anchor="middle" x="119" y="-62.6" font-family="Times,serif" font-size="14.00">NavComponent</text>
</g>
<!-- NavComponent&#45;&gt;CoreModule -->
<g id="edge3" class="edge">
<title>NavComponent&#45;&gt;CoreModule</title>
<path fill="none" stroke="black" d="M145.32,-85.07C145.32,-103.36 145.32,-128.8 145.32,-128.8 145.32,-128.8 334.61,-128.8 334.61,-128.8"/>
<polygon fill="black" stroke="black" points="334.61,-132.3 344.61,-128.8 334.61,-125.3 334.61,-132.3"/>
</g>
<!-- FooterComponent  -->
<g id="node7" class="node">
<title>FooterComponent </title>
<polygon fill="#fb8072" stroke="black" points="760.88,-214.8 639.12,-214.8 639.12,-178.8 760.88,-178.8 760.88,-214.8"/>
<text text-anchor="middle" x="700" y="-192.6" font-family="Times,serif" font-size="14.00">FooterComponent </text>
</g>
<!-- CoreModule&#45;&gt;FooterComponent  -->
<g id="edge6" class="edge">
<title>CoreModule&#45;&gt;FooterComponent </title>
<path fill="none" stroke="black" stroke-dasharray="5,2" d="M431.47,-135.8C510.61,-135.8 670.15,-135.8 670.15,-135.8 670.15,-135.8 670.15,-168.5 670.15,-168.5"/>
<polygon fill="black" stroke="black" points="666.65,-168.5 670.15,-178.5 673.65,-168.5 666.65,-168.5"/>
</g>
<!-- HeaderComponent  -->
<g id="node8" class="node">
<title>HeaderComponent </title>
<polygon fill="#fb8072" stroke="black" points="621.75,-214.8 496.25,-214.8 496.25,-178.8 621.75,-178.8 621.75,-214.8"/>
<text text-anchor="middle" x="559" y="-192.6" font-family="Times,serif" font-size="14.00">HeaderComponent </text>
</g>
<!-- CoreModule&#45;&gt;HeaderComponent  -->
<g id="edge7" class="edge">
<title>CoreModule&#45;&gt;HeaderComponent </title>
<path fill="none" stroke="black" stroke-dasharray="5,2" d="M431.44,-142.8C474.09,-142.8 532.8,-142.8 532.8,-142.8 532.8,-142.8 532.8,-168.52 532.8,-168.52"/>
<polygon fill="black" stroke="black" points="529.3,-168.52 532.8,-178.52 536.3,-168.52 529.3,-168.52"/>
</g>
<!-- IconsModule  -->
<g id="node9" class="node">
<title>IconsModule </title>
<polygon fill="#fb8072" stroke="black" points="478.88,-214.8 385.12,-214.8 385.12,-178.8 478.88,-178.8 478.88,-214.8"/>
<text text-anchor="middle" x="432" y="-192.6" font-family="Times,serif" font-size="14.00">IconsModule </text>
</g>
<!-- CoreModule&#45;&gt;IconsModule  -->
<g id="edge8" class="edge">
<title>CoreModule&#45;&gt;IconsModule </title>
<path fill="none" stroke="black" stroke-dasharray="5,2" d="M408.35,-149.91C408.35,-149.91 408.35,-168.79 408.35,-168.79"/>
<polygon fill="black" stroke="black" points="404.85,-168.79 408.35,-178.79 411.85,-168.79 404.85,-168.79"/>
</g>
<!-- NavComponent  -->
<g id="node10" class="node">
<title>NavComponent </title>
<polygon fill="#fb8072" stroke="black" points="367.16,-214.8 258.84,-214.8 258.84,-178.8 367.16,-178.8 367.16,-214.8"/>
<text text-anchor="middle" x="313" y="-192.6" font-family="Times,serif" font-size="14.00">NavComponent </text>
</g>
<!-- CoreModule&#45;&gt;NavComponent  -->
<g id="edge9" class="edge">
<title>CoreModule&#45;&gt;NavComponent </title>
<path fill="none" stroke="black" stroke-dasharray="5,2" d="M355.85,-149.91C355.85,-149.91 355.85,-168.79 355.85,-168.79"/>
<polygon fill="black" stroke="black" points="352.35,-168.79 355.85,-178.79 359.35,-168.79 352.35,-168.79"/>
</g>
<!-- TemplatesModule  -->
<g id="node11" class="node">
<title>TemplatesModule </title>
<polygon fill="#fb8072" stroke="black" points="240.86,-214.8 119.14,-214.8 119.14,-178.8 240.86,-178.8 240.86,-214.8"/>
<text text-anchor="middle" x="180" y="-192.6" font-family="Times,serif" font-size="14.00">TemplatesModule </text>
</g>
<!-- CoreModule&#45;&gt;TemplatesModule  -->
<g id="edge10" class="edge">
<title>CoreModule&#45;&gt;TemplatesModule </title>
<path fill="none" stroke="black" stroke-dasharray="5,2" d="M344.32,-142.8C293.04,-142.8 214.9,-142.8 214.9,-142.8 214.9,-142.8 214.9,-168.52 214.9,-168.52"/>
<polygon fill="black" stroke="black" points="211.4,-168.52 214.9,-178.52 218.4,-168.52 211.4,-168.52"/>
</g>
<!-- UiModule  -->
<g id="node12" class="node">
<title>UiModule </title>
<polygon fill="#fb8072" stroke="black" points="101.55,-214.8 24.45,-214.8 24.45,-178.8 101.55,-178.8 101.55,-214.8"/>
<text text-anchor="middle" x="63" y="-192.6" font-family="Times,serif" font-size="14.00">UiModule </text>
</g>
<!-- CoreModule&#45;&gt;UiModule  -->
<g id="edge11" class="edge">
<title>CoreModule&#45;&gt;UiModule </title>
<path fill="none" stroke="black" stroke-dasharray="5,2" d="M344.46,-135.8C260.43,-135.8 84.1,-135.8 84.1,-135.8 84.1,-135.8 84.1,-168.5 84.1,-168.5"/>
<polygon fill="black" stroke="black" points="80.6,-168.5 84.1,-178.5 87.6,-168.5 80.6,-168.5"/>
</g>
<!-- MessagesModule -->
<g id="node5" class="node">
<title>MessagesModule</title>
<polygon fill="#8dd3c7" stroke="black" points="700.99,-84.8 697.99,-88.8 676.99,-88.8 673.99,-84.8 587.01,-84.8 587.01,-48.8 700.99,-48.8 700.99,-84.8"/>
<text text-anchor="middle" x="644" y="-62.6" font-family="Times,serif" font-size="14.00">MessagesModule</text>
</g>
<!-- MessagesModule&#45;&gt;CoreModule -->
<g id="edge4" class="edge">
<title>MessagesModule&#45;&gt;CoreModule</title>
<path fill="none" stroke="black" d="M604.31,-85.07C604.31,-103.36 604.31,-128.8 604.31,-128.8 604.31,-128.8 441.51,-128.8 441.51,-128.8"/>
<polygon fill="black" stroke="black" points="441.51,-125.3 431.51,-128.8 441.51,-132.3 441.51,-125.3"/>
</g>
<!-- SharedModule -->
<g id="node6" class="node">
<title>SharedModule</title>
<polygon fill="#8dd3c7" stroke="black" points="569.43,-84.8 566.43,-88.8 545.43,-88.8 542.43,-84.8 470.57,-84.8 470.57,-48.8 569.43,-48.8 569.43,-84.8"/>
<text text-anchor="middle" x="520" y="-62.6" font-family="Times,serif" font-size="14.00">SharedModule</text>
</g>
<!-- SharedModule&#45;&gt;CoreModule -->
<g id="edge5" class="edge">
<title>SharedModule&#45;&gt;CoreModule</title>
<path fill="none" stroke="black" d="M474.74,-84.81C474.74,-100.85 474.74,-121.8 474.74,-121.8 474.74,-121.8 441.37,-121.8 441.37,-121.8"/>
<polygon fill="black" stroke="black" points="441.37,-118.3 431.37,-121.8 441.37,-125.3 441.37,-118.3"/>
</g>
</g>
</svg>
