<?xml version="1.0" encoding="UTF-8" standalone="no"?>
<!DOCTYPE svg PUBLIC "-//W3C//DTD SVG 1.1//EN"
 "http://www.w3.org/Graphics/SVG/1.1/DTD/svg11.dtd">
<!-- Generated by graphviz version 5.0.0 (20220707.1540)
 -->
<!-- Title: dependencies Pages: 1 -->
<svg width="924pt" height="174pt"
 viewBox="0.00 0.00 924.00 173.80" xmlns="http://www.w3.org/2000/svg" xmlns:xlink="http://www.w3.org/1999/xlink">
<g id="graph0" class="graph" transform="scale(1 1) rotate(0) translate(4 169.8)">
<title>dependencies</title>
<polygon fill="white" stroke="transparent" points="-4,4 -4,-169.8 920,-169.8 920,4 -4,4"/>
<text text-anchor="middle" x="458" y="-8.2" font-family="sans-serif" font-size="14.00">dependencies</text>
<g id="clust1" class="cluster">
<title>cluster_ChannelsModule</title>
<polygon fill="none" stroke="black" stroke-dasharray="1,5" points="8,-32.8 8,-157.8 908,-157.8 908,-32.8 8,-32.8"/>
</g>
<g id="clust2" class="cluster">
<title>cluster_ChannelsModule_declarations</title>
<polygon fill="none" stroke="black" points="313,-40.8 313,-92.8 900,-92.8 900,-40.8 313,-40.8"/>
</g>
<g id="clust6" class="cluster">
<title>cluster_ChannelsModule_imports</title>
<polygon fill="none" stroke="black" points="16,-40.8 16,-92.8 305,-92.8 305,-40.8 16,-40.8"/>
</g>
<!-- FormChannelComponent -->
<g id="node1" class="node">
<title>FormChannelComponent</title>
<polygon fill="#ffffb3" stroke="black" points="892.32,-84.8 733.68,-84.8 733.68,-48.8 892.32,-48.8 892.32,-84.8"/>
<text text-anchor="middle" x="813" y="-62.6" font-family="Times,serif" font-size="14.00">FormChannelComponent</text>
</g>
<!-- ChannelsModule -->
<g id="node4" class="node">
<title>ChannelsModule</title>
<polygon fill="#8dd3c7" stroke="black" points="467.66,-149.8 464.66,-153.8 443.66,-153.8 440.66,-149.8 356.34,-149.8 356.34,-113.8 467.66,-113.8 467.66,-149.8"/>
<text text-anchor="middle" x="412" y="-127.6" font-family="Times,serif" font-size="14.00">ChannelsModule</text>
</g>
<!-- FormChannelComponent&#45;&gt;ChannelsModule -->
<g id="edge1" class="edge">
<title>FormChannelComponent&#45;&gt;ChannelsModule</title>
<path fill="none" stroke="black" d="M813,-85.08C813,-106.12 813,-137.8 813,-137.8 813,-137.8 477.76,-137.8 477.76,-137.8"/>
<polygon fill="black" stroke="black" points="477.76,-134.3 467.76,-137.8 477.76,-141.3 477.76,-134.3"/>
</g>
<!-- FormDeleteChannelComponent -->
<g id="node2" class="node">
<title>FormDeleteChannelComponent</title>
<polygon fill="#ffffb3" stroke="black" points="715.36,-84.8 520.64,-84.8 520.64,-48.8 715.36,-48.8 715.36,-84.8"/>
<text text-anchor="middle" x="618" y="-62.6" font-family="Times,serif" font-size="14.00">FormDeleteChannelComponent</text>
</g>
<!-- FormDeleteChannelComponent&#45;&gt;ChannelsModule -->
<g id="edge2" class="edge">
<title>FormDeleteChannelComponent&#45;&gt;ChannelsModule</title>
<path fill="none" stroke="black" d="M618,-84.82C618,-102.17 618,-125.8 618,-125.8 618,-125.8 477.75,-125.8 477.75,-125.8"/>
<polygon fill="black" stroke="black" points="477.75,-122.3 467.75,-125.8 477.75,-129.3 477.75,-122.3"/>
</g>
<!-- FormEditChannelComponent -->
<g id="node3" class="node">
<title>FormEditChannelComponent</title>
<polygon fill="#ffffb3" stroke="black" points="502.66,-84.8 321.34,-84.8 321.34,-48.8 502.66,-48.8 502.66,-84.8"/>
<text text-anchor="middle" x="412" y="-62.6" font-family="Times,serif" font-size="14.00">FormEditChannelComponent</text>
</g>
<!-- FormEditChannelComponent&#45;&gt;ChannelsModule -->
<g id="edge3" class="edge">
<title>FormEditChannelComponent&#45;&gt;ChannelsModule</title>
<path fill="none" stroke="black" d="M412,-84.91C412,-84.91 412,-103.79 412,-103.79"/>
<polygon fill="black" stroke="black" points="408.5,-103.79 412,-113.79 415.5,-103.79 408.5,-103.79"/>
</g>
<!-- ChannelsRoutingModule -->
<g id="node5" class="node">
<title>ChannelsRoutingModule</title>
<polygon fill="#8dd3c7" stroke="black" points="297.27,-84.8 294.27,-88.8 273.27,-88.8 270.27,-84.8 140.73,-84.8 140.73,-48.8 297.27,-48.8 297.27,-84.8"/>
<text text-anchor="middle" x="219" y="-62.6" font-family="Times,serif" font-size="14.00">ChannelsRoutingModule</text>
</g>
<!-- ChannelsRoutingModule&#45;&gt;ChannelsModule -->
<g id="edge4" class="edge">
<title>ChannelsRoutingModule&#45;&gt;ChannelsModule</title>
<path fill="none" stroke="black" d="M219,-84.82C219,-102.17 219,-125.8 219,-125.8 219,-125.8 346.18,-125.8 346.18,-125.8"/>
<polygon fill="black" stroke="black" points="346.18,-129.3 356.18,-125.8 346.18,-122.3 346.18,-129.3"/>
</g>
<!-- SharedModule -->
<g id="node6" class="node">
<title>SharedModule</title>
<polygon fill="#8dd3c7" stroke="black" points="122.43,-84.8 119.43,-88.8 98.43,-88.8 95.43,-84.8 23.57,-84.8 23.57,-48.8 122.43,-48.8 122.43,-84.8"/>
<text text-anchor="middle" x="73" y="-62.6" font-family="Times,serif" font-size="14.00">SharedModule</text>
</g>
<!-- SharedModule&#45;&gt;ChannelsModule -->
<g id="edge5" class="edge">
<title>SharedModule&#45;&gt;ChannelsModule</title>
<path fill="none" stroke="black" d="M73,-85.08C73,-106.12 73,-137.8 73,-137.8 73,-137.8 346.02,-137.8 346.02,-137.8"/>
<polygon fill="black" stroke="black" points="346.02,-141.3 356.02,-137.8 346.02,-134.3 346.02,-141.3"/>
</g>
</g>
</svg>
