<?xml version="1.0" encoding="UTF-8" standalone="no"?>
<!DOCTYPE svg PUBLIC "-//W3C//DTD SVG 1.1//EN"
 "http://www.w3.org/Graphics/SVG/1.1/DTD/svg11.dtd">
<!-- Generated by graphviz version 5.0.0 (20220707.1540)
 -->
<!-- Title: dependencies Pages: 1 -->
<svg width="1121pt" height="174pt"
 viewBox="0.00 0.00 1121.00 173.80" xmlns="http://www.w3.org/2000/svg" xmlns:xlink="http://www.w3.org/1999/xlink">
<g id="graph0" class="graph" transform="scale(1 1) rotate(0) translate(4 169.8)">
<title>dependencies</title>
<polygon fill="white" stroke="transparent" points="-4,4 -4,-169.8 1117,-169.8 1117,4 -4,4"/>
<text text-anchor="middle" x="556.5" y="-8.2" font-family="sans-serif" font-size="14.00">dependencies</text>
<g id="clust1" class="cluster">
<title>cluster_ChannelsModule</title>
<polygon fill="none" stroke="black" stroke-dasharray="1,5" points="8,-32.8 8,-157.8 1105,-157.8 1105,-32.8 8,-32.8"/>
</g>
<g id="clust7" class="cluster">
<title>cluster_ChannelsModule_imports</title>
<polygon fill="none" stroke="black" points="808,-40.8 808,-92.8 1097,-92.8 1097,-40.8 808,-40.8"/>
</g>
<g id="clust2" class="cluster">
<title>cluster_ChannelsModule_declarations</title>
<polygon fill="none" stroke="black" points="16,-40.8 16,-92.8 800,-92.8 800,-40.8 16,-40.8"/>
</g>
<!-- FormChannelComponent -->
<g id="node1" class="node">
<title>FormChannelComponent</title>
<polygon fill="#ffffb3" stroke="black" points="792.32,-84.8 633.68,-84.8 633.68,-48.8 792.32,-48.8 792.32,-84.8"/>
<text text-anchor="middle" x="713" y="-62.6" font-family="Times,serif" font-size="14.00">FormChannelComponent</text>
</g>
<!-- ChannelsModule -->
<g id="node5" class="node">
<title>ChannelsModule</title>
<polygon fill="#8dd3c7" stroke="black" points="670.66,-149.8 667.66,-153.8 646.66,-153.8 643.66,-149.8 559.34,-149.8 559.34,-113.8 670.66,-113.8 670.66,-149.8"/>
<text text-anchor="middle" x="615" y="-127.6" font-family="Times,serif" font-size="14.00">ChannelsModule</text>
</g>
<!-- FormChannelComponent&#45;&gt;ChannelsModule -->
<g id="edge1" class="edge">
<title>FormChannelComponent&#45;&gt;ChannelsModule</title>
<path fill="none" stroke="black" d="M652.33,-84.91C652.33,-84.91 652.33,-103.79 652.33,-103.79"/>
<polygon fill="black" stroke="black" points="648.83,-103.79 652.33,-113.79 655.83,-103.79 648.83,-103.79"/>
</g>
<!-- FormDeleteChannelComponent -->
<g id="node2" class="node">
<title>FormDeleteChannelComponent</title>
<polygon fill="#ffffb3" stroke="black" points="615.36,-84.8 420.64,-84.8 420.64,-48.8 615.36,-48.8 615.36,-84.8"/>
<text text-anchor="middle" x="518" y="-62.6" font-family="Times,serif" font-size="14.00">FormDeleteChannelComponent</text>
</g>
<!-- FormDeleteChannelComponent&#45;&gt;ChannelsModule -->
<g id="edge2" class="edge">
<title>FormDeleteChannelComponent&#45;&gt;ChannelsModule</title>
<path fill="none" stroke="black" d="M587.3,-84.91C587.3,-84.91 587.3,-103.79 587.3,-103.79"/>
<polygon fill="black" stroke="black" points="583.8,-103.79 587.3,-113.79 590.8,-103.79 583.8,-103.79"/>
</g>
<!-- FormEditChannelComponent -->
<g id="node3" class="node">
<title>FormEditChannelComponent</title>
<polygon fill="#ffffb3" stroke="black" points="402.66,-84.8 221.34,-84.8 221.34,-48.8 402.66,-48.8 402.66,-84.8"/>
<text text-anchor="middle" x="312" y="-62.6" font-family="Times,serif" font-size="14.00">FormEditChannelComponent</text>
</g>
<!-- FormEditChannelComponent&#45;&gt;ChannelsModule -->
<g id="edge3" class="edge">
<title>FormEditChannelComponent&#45;&gt;ChannelsModule</title>
<path fill="none" stroke="black" d="M312,-84.82C312,-102.17 312,-125.8 312,-125.8 312,-125.8 549.07,-125.8 549.07,-125.8"/>
<polygon fill="black" stroke="black" points="549.07,-129.3 559.07,-125.8 549.07,-122.3 549.07,-129.3"/>
</g>
<!-- PageAddChannelComponent -->
<g id="node4" class="node">
<title>PageAddChannelComponent</title>
<polygon fill="#ffffb3" stroke="black" points="203.81,-84.8 24.19,-84.8 24.19,-48.8 203.81,-48.8 203.81,-84.8"/>
<text text-anchor="middle" x="114" y="-62.6" font-family="Times,serif" font-size="14.00">PageAddChannelComponent</text>
</g>
<!-- PageAddChannelComponent&#45;&gt;ChannelsModule -->
<g id="edge4" class="edge">
<title>PageAddChannelComponent&#45;&gt;ChannelsModule</title>
<path fill="none" stroke="black" d="M114,-85.08C114,-106.12 114,-137.8 114,-137.8 114,-137.8 548.99,-137.8 548.99,-137.8"/>
<polygon fill="black" stroke="black" points="548.99,-141.3 558.99,-137.8 548.99,-134.3 548.99,-141.3"/>
</g>
<!-- ChannelsRoutingModule -->
<g id="node6" class="node">
<title>ChannelsRoutingModule</title>
<polygon fill="#8dd3c7" stroke="black" points="1089.27,-84.8 1086.27,-88.8 1065.27,-88.8 1062.27,-84.8 932.73,-84.8 932.73,-48.8 1089.27,-48.8 1089.27,-84.8"/>
<text text-anchor="middle" x="1011" y="-62.6" font-family="Times,serif" font-size="14.00">ChannelsRoutingModule</text>
</g>
<!-- ChannelsRoutingModule&#45;&gt;ChannelsModule -->
<g id="edge5" class="edge">
<title>ChannelsRoutingModule&#45;&gt;ChannelsModule</title>
<path fill="none" stroke="black" d="M1011,-85.08C1011,-106.12 1011,-137.8 1011,-137.8 1011,-137.8 680.9,-137.8 680.9,-137.8"/>
<polygon fill="black" stroke="black" points="680.9,-134.3 670.9,-137.8 680.9,-141.3 680.9,-134.3"/>
</g>
<!-- SharedModule -->
<g id="node7" class="node">
<title>SharedModule</title>
<polygon fill="#8dd3c7" stroke="black" points="914.43,-84.8 911.43,-88.8 890.43,-88.8 887.43,-84.8 815.57,-84.8 815.57,-48.8 914.43,-48.8 914.43,-84.8"/>
<text text-anchor="middle" x="865" y="-62.6" font-family="Times,serif" font-size="14.00">SharedModule</text>
</g>
<!-- SharedModule&#45;&gt;ChannelsModule -->
<g id="edge6" class="edge">
<title>SharedModule&#45;&gt;ChannelsModule</title>
<path fill="none" stroke="black" d="M865,-84.82C865,-102.17 865,-125.8 865,-125.8 865,-125.8 680.79,-125.8 680.79,-125.8"/>
<polygon fill="black" stroke="black" points="680.79,-122.3 670.79,-125.8 680.79,-129.3 680.79,-122.3"/>
</g>
</g>
</svg>
