<?xml version="1.0" encoding="UTF-8" standalone="no"?>
<!DOCTYPE svg PUBLIC "-//W3C//DTD SVG 1.1//EN"
 "http://www.w3.org/Graphics/SVG/1.1/DTD/svg11.dtd">
<!-- Generated by graphviz version 5.0.0 (20220707.1540)
 -->
<!-- Title: dependencies Pages: 1 -->
<svg width="480pt" height="247pt"
 viewBox="0.00 0.00 480.00 246.80" xmlns="http://www.w3.org/2000/svg" xmlns:xlink="http://www.w3.org/1999/xlink">
<g id="graph0" class="graph" transform="scale(1 1) rotate(0) translate(4 242.8)">
<title>dependencies</title>
<polygon fill="white" stroke="transparent" points="-4,4 -4,-242.8 476,-242.8 476,4 -4,4"/>
<text text-anchor="middle" x="236" y="-8.2" font-family="sans-serif" font-size="14.00">dependencies</text>
<g id="clust1" class="cluster">
<title>cluster_SharedModule</title>
<polygon fill="none" stroke="black" stroke-dasharray="1,5" points="8,-32.8 8,-230.8 464,-230.8 464,-32.8 8,-32.8"/>
</g>
<g id="clust2" class="cluster">
<title>cluster_SharedModule_declarations</title>
<polygon fill="none" stroke="black" points="87,-40.8 87,-92.8 379,-92.8 379,-40.8 87,-40.8"/>
</g>
<g id="clust6" class="cluster">
<title>cluster_SharedModule_exports</title>
<polygon fill="none" stroke="black" points="16,-170.8 16,-222.8 456,-222.8 456,-170.8 16,-170.8"/>
</g>
<!-- BtnLinkComponent -->
<g id="node1" class="node">
<title>BtnLinkComponent</title>
<polygon fill="#ffffb3" stroke="black" points="371,-84.8 243,-84.8 243,-48.8 371,-48.8 371,-84.8"/>
<text text-anchor="middle" x="307" y="-62.6" font-family="Times,serif" font-size="14.00">BtnLinkComponent</text>
</g>
<!-- SharedModule -->
<g id="node3" class="node">
<title>SharedModule</title>
<polygon fill="#8dd3c7" stroke="black" points="280.43,-149.8 277.43,-153.8 256.43,-153.8 253.43,-149.8 181.57,-149.8 181.57,-113.8 280.43,-113.8 280.43,-149.8"/>
<text text-anchor="middle" x="231" y="-127.6" font-family="Times,serif" font-size="14.00">SharedModule</text>
</g>
<!-- BtnLinkComponent&#45;&gt;SharedModule -->
<g id="edge1" class="edge">
<title>BtnLinkComponent&#45;&gt;SharedModule</title>
<path fill="none" stroke="black" d="M261.61,-84.91C261.61,-84.91 261.61,-103.79 261.61,-103.79"/>
<polygon fill="black" stroke="black" points="258.11,-103.79 261.61,-113.79 265.11,-103.79 258.11,-103.79"/>
</g>
<!-- MessageComponent -->
<g id="node2" class="node">
<title>MessageComponent</title>
<polygon fill="#ffffb3" stroke="black" points="225.32,-84.8 94.68,-84.8 94.68,-48.8 225.32,-48.8 225.32,-84.8"/>
<text text-anchor="middle" x="160" y="-62.6" font-family="Times,serif" font-size="14.00">MessageComponent</text>
</g>
<!-- MessageComponent&#45;&gt;SharedModule -->
<g id="edge2" class="edge">
<title>MessageComponent&#45;&gt;SharedModule</title>
<path fill="none" stroke="black" d="M203.47,-84.91C203.47,-84.91 203.47,-103.79 203.47,-103.79"/>
<polygon fill="black" stroke="black" points="199.97,-103.79 203.47,-113.79 206.97,-103.79 199.97,-103.79"/>
</g>
<!-- BtnLinkComponent  -->
<g id="node4" class="node">
<title>BtnLinkComponent </title>
<polygon fill="#fb8072" stroke="black" points="447.5,-214.8 316.5,-214.8 316.5,-178.8 447.5,-178.8 447.5,-214.8"/>
<text text-anchor="middle" x="382" y="-192.6" font-family="Times,serif" font-size="14.00">BtnLinkComponent </text>
</g>
<!-- SharedModule&#45;&gt;BtnLinkComponent  -->
<g id="edge3" class="edge">
<title>SharedModule&#45;&gt;BtnLinkComponent </title>
<path fill="none" stroke="black" stroke-dasharray="5,2" d="M280.4,-131.8C310.66,-131.8 343.62,-131.8 343.62,-131.8 343.62,-131.8 343.62,-168.69 343.62,-168.69"/>
<polygon fill="black" stroke="black" points="340.13,-168.69 343.62,-178.69 347.13,-168.69 340.13,-168.69"/>
</g>
<!-- MessageComponent  -->
<g id="node5" class="node">
<title>MessageComponent </title>
<polygon fill="#fb8072" stroke="black" points="297.82,-214.8 164.18,-214.8 164.18,-178.8 297.82,-178.8 297.82,-214.8"/>
<text text-anchor="middle" x="231" y="-192.6" font-family="Times,serif" font-size="14.00">MessageComponent </text>
</g>
<!-- SharedModule&#45;&gt;MessageComponent  -->
<g id="edge4" class="edge">
<title>SharedModule&#45;&gt;MessageComponent </title>
<path fill="none" stroke="black" stroke-dasharray="5,2" d="M231,-149.91C231,-149.91 231,-168.79 231,-168.79"/>
<polygon fill="black" stroke="black" points="227.5,-168.79 231,-178.79 234.5,-168.79 227.5,-168.79"/>
</g>
<!-- TemplatesModule  -->
<g id="node6" class="node">
<title>TemplatesModule </title>
<polygon fill="#fb8072" stroke="black" points="145.86,-214.8 24.14,-214.8 24.14,-178.8 145.86,-178.8 145.86,-214.8"/>
<text text-anchor="middle" x="85" y="-192.6" font-family="Times,serif" font-size="14.00">TemplatesModule </text>
</g>
<!-- SharedModule&#45;&gt;TemplatesModule  -->
<g id="edge5" class="edge">
<title>SharedModule&#45;&gt;TemplatesModule </title>
<path fill="none" stroke="black" stroke-dasharray="5,2" d="M181.78,-131.8C152.21,-131.8 120.26,-131.8 120.26,-131.8 120.26,-131.8 120.26,-168.69 120.26,-168.69"/>
<polygon fill="black" stroke="black" points="116.76,-168.69 120.26,-178.69 123.76,-168.69 116.76,-168.69"/>
</g>
</g>
</svg>
