<?xml version="1.0" encoding="UTF-8" standalone="no"?>
<!DOCTYPE svg PUBLIC "-//W3C//DTD SVG 1.1//EN"
 "http://www.w3.org/Graphics/SVG/1.1/DTD/svg11.dtd">
<!-- Generated by graphviz version 5.0.0 (20220707.1540)
 -->
<!-- Title: dependencies Pages: 1 -->
<svg width="619pt" height="247pt"
 viewBox="0.00 0.00 619.00 246.80" xmlns="http://www.w3.org/2000/svg" xmlns:xlink="http://www.w3.org/1999/xlink">
<g id="graph0" class="graph" transform="scale(1 1) rotate(0) translate(4 242.8)">
<title>dependencies</title>
<polygon fill="white" stroke="transparent" points="-4,4 -4,-242.8 615,-242.8 615,4 -4,4"/>
<text text-anchor="middle" x="305.5" y="-8.2" font-family="sans-serif" font-size="14.00">dependencies</text>
<g id="clust1" class="cluster">
<title>cluster_SharedModule</title>
<polygon fill="none" stroke="black" stroke-dasharray="1,5" points="8,-32.8 8,-230.8 603,-230.8 603,-32.8 8,-32.8"/>
</g>
<g id="clust2" class="cluster">
<title>cluster_SharedModule_declarations</title>
<polygon fill="none" stroke="black" points="88,-40.8 88,-92.8 516,-92.8 516,-40.8 88,-40.8"/>
</g>
<g id="clust7" class="cluster">
<title>cluster_SharedModule_exports</title>
<polygon fill="none" stroke="black" points="16,-170.8 16,-222.8 595,-222.8 595,-170.8 16,-170.8"/>
</g>
<!-- BtnLinkComponent -->
<g id="node1" class="node">
<title>BtnLinkComponent</title>
<polygon fill="#ffffb3" stroke="black" points="508,-84.8 380,-84.8 380,-48.8 508,-48.8 508,-84.8"/>
<text text-anchor="middle" x="444" y="-62.6" font-family="Times,serif" font-size="14.00">BtnLinkComponent</text>
</g>
<!-- SharedModule -->
<g id="node4" class="node">
<title>SharedModule</title>
<polygon fill="#8dd3c7" stroke="black" points="346.43,-149.8 343.43,-153.8 322.43,-153.8 319.43,-149.8 247.57,-149.8 247.57,-113.8 346.43,-113.8 346.43,-149.8"/>
<text text-anchor="middle" x="297" y="-127.6" font-family="Times,serif" font-size="14.00">SharedModule</text>
</g>
<!-- BtnLinkComponent&#45;&gt;SharedModule -->
<g id="edge1" class="edge">
<title>BtnLinkComponent&#45;&gt;SharedModule</title>
<path fill="none" stroke="black" d="M408.45,-84.82C408.45,-102.17 408.45,-125.8 408.45,-125.8 408.45,-125.8 356.53,-125.8 356.53,-125.8"/>
<polygon fill="black" stroke="black" points="356.53,-122.3 346.53,-125.8 356.53,-129.3 356.53,-122.3"/>
</g>
<!-- MessageComponent -->
<g id="node2" class="node">
<title>MessageComponent</title>
<polygon fill="#ffffb3" stroke="black" points="362.32,-84.8 231.68,-84.8 231.68,-48.8 362.32,-48.8 362.32,-84.8"/>
<text text-anchor="middle" x="297" y="-62.6" font-family="Times,serif" font-size="14.00">MessageComponent</text>
</g>
<!-- MessageComponent&#45;&gt;SharedModule -->
<g id="edge2" class="edge">
<title>MessageComponent&#45;&gt;SharedModule</title>
<path fill="none" stroke="black" d="M297,-84.91C297,-84.91 297,-103.79 297,-103.79"/>
<polygon fill="black" stroke="black" points="293.5,-103.79 297,-113.79 300.5,-103.79 293.5,-103.79"/>
</g>
<!-- ModalComponent -->
<g id="node3" class="node">
<title>ModalComponent</title>
<polygon fill="#ffffb3" stroke="black" points="213.88,-84.8 96.12,-84.8 96.12,-48.8 213.88,-48.8 213.88,-84.8"/>
<text text-anchor="middle" x="155" y="-62.6" font-family="Times,serif" font-size="14.00">ModalComponent</text>
</g>
<!-- ModalComponent&#45;&gt;SharedModule -->
<g id="edge3" class="edge">
<title>ModalComponent&#45;&gt;SharedModule</title>
<path fill="none" stroke="black" d="M188.62,-84.82C188.62,-102.17 188.62,-125.8 188.62,-125.8 188.62,-125.8 237.57,-125.8 237.57,-125.8"/>
<polygon fill="black" stroke="black" points="237.57,-129.3 247.57,-125.8 237.57,-122.3 237.57,-129.3"/>
</g>
<!-- BtnLinkComponent  -->
<g id="node5" class="node">
<title>BtnLinkComponent </title>
<polygon fill="#fb8072" stroke="black" points="586.5,-214.8 455.5,-214.8 455.5,-178.8 586.5,-178.8 586.5,-214.8"/>
<text text-anchor="middle" x="521" y="-192.6" font-family="Times,serif" font-size="14.00">BtnLinkComponent </text>
</g>
<!-- SharedModule&#45;&gt;BtnLinkComponent  -->
<g id="edge4" class="edge">
<title>SharedModule&#45;&gt;BtnLinkComponent </title>
<path fill="none" stroke="black" stroke-dasharray="5,2" d="M346.48,-137.8C401.16,-137.8 481.62,-137.8 481.62,-137.8 481.62,-137.8 481.62,-168.78 481.62,-168.78"/>
<polygon fill="black" stroke="black" points="478.13,-168.78 481.62,-178.78 485.13,-168.78 478.13,-168.78"/>
</g>
<!-- MessageComponent  -->
<g id="node6" class="node">
<title>MessageComponent </title>
<polygon fill="#fb8072" stroke="black" points="436.82,-214.8 303.18,-214.8 303.18,-178.8 436.82,-178.8 436.82,-214.8"/>
<text text-anchor="middle" x="370" y="-192.6" font-family="Times,serif" font-size="14.00">MessageComponent </text>
</g>
<!-- SharedModule&#45;&gt;MessageComponent  -->
<g id="edge5" class="edge">
<title>SharedModule&#45;&gt;MessageComponent </title>
<path fill="none" stroke="black" stroke-dasharray="5,2" d="M324.65,-149.91C324.65,-149.91 324.65,-168.79 324.65,-168.79"/>
<polygon fill="black" stroke="black" points="321.15,-168.79 324.65,-178.79 328.15,-168.79 321.15,-168.79"/>
</g>
<!-- ModalComponent  -->
<g id="node7" class="node">
<title>ModalComponent </title>
<polygon fill="#fb8072" stroke="black" points="284.88,-214.8 163.12,-214.8 163.12,-178.8 284.88,-178.8 284.88,-214.8"/>
<text text-anchor="middle" x="224" y="-192.6" font-family="Times,serif" font-size="14.00">ModalComponent </text>
</g>
<!-- SharedModule&#45;&gt;ModalComponent  -->
<g id="edge6" class="edge">
<title>SharedModule&#45;&gt;ModalComponent </title>
<path fill="none" stroke="black" stroke-dasharray="5,2" d="M266.24,-149.91C266.24,-149.91 266.24,-168.79 266.24,-168.79"/>
<polygon fill="black" stroke="black" points="262.74,-168.79 266.24,-178.79 269.74,-168.79 262.74,-168.79"/>
</g>
<!-- TemplatesModule  -->
<g id="node8" class="node">
<title>TemplatesModule </title>
<polygon fill="#fb8072" stroke="black" points="145.86,-214.8 24.14,-214.8 24.14,-178.8 145.86,-178.8 145.86,-214.8"/>
<text text-anchor="middle" x="85" y="-192.6" font-family="Times,serif" font-size="14.00">TemplatesModule </text>
</g>
<!-- SharedModule&#45;&gt;TemplatesModule  -->
<g id="edge7" class="edge">
<title>SharedModule&#45;&gt;TemplatesModule </title>
<path fill="none" stroke="black" stroke-dasharray="5,2" d="M247.47,-137.8C195.37,-137.8 120.87,-137.8 120.87,-137.8 120.87,-137.8 120.87,-168.78 120.87,-168.78"/>
<polygon fill="black" stroke="black" points="117.37,-168.78 120.87,-178.78 124.37,-168.78 117.37,-168.78"/>
</g>
</g>
</svg>
